<svg version="1.1" id="Layer_1" xmlns="http://www.w3.org/2000/svg" xmlns:xlink="http://www.w3.org/1999/xlink" x="0px" y="0px"
	 width="100%" viewBox="0 0 1920 1080" enable-background="new 0 0 1920 1080" xml:space="preserve">
<path fill="#000000" opacity="1.000000" stroke="none" 
	d="
M1404.000000,1081.000000 
	C936.000061,1081.000000 468.500153,1081.000000 1.000188,1081.000000 
	C1.000125,721.000122 1.000125,361.000305 1.000063,1.000333 
	C640.999756,1.000222 1280.999512,1.000222 1920.999512,1.000111 
	C1920.999634,360.999664 1920.999634,720.999329 1920.999756,1080.999512 
	C1748.833374,1081.000000 1576.666626,1081.000000 1404.000000,1081.000000 
M1404.523071,544.997498 
	C1401.088867,544.997498 1397.654541,544.997498 1395.237549,544.997498 
	C1393.794556,524.093506 1392.843506,503.825653 1390.839478,483.662445 
	C1389.589722,471.086975 1387.614990,458.443542 1384.425781,446.232788 
	C1379.294678,426.587189 1373.436768,407.088104 1366.889893,387.866333 
	C1358.253296,362.509552 1345.746826,338.883270 1331.963989,315.972168 
	C1315.586182,288.747864 1296.366943,263.586914 1274.151001,240.929886 
	C1261.721680,228.253937 1248.120728,216.671356 1234.551514,205.181870 
	C1215.056030,188.674255 1193.634399,174.845795 1171.186035,162.738220 
	C1142.948853,147.508316 1113.539185,135.196136 1082.484131,126.580139 
	C1053.520996,118.544479 1024.173462,112.506805 994.290222,111.347160 
	C963.287476,110.144073 932.154846,109.798813 901.209595,114.818634 
	C879.251953,118.380531 857.585999,122.993950 836.345276,129.388168 
	C800.059570,140.311478 765.983093,156.382599 734.049988,176.649231 
	C703.575745,195.989899 675.259888,218.176697 651.183228,245.337143 
	C642.141846,255.536591 632.807190,265.525208 624.428650,276.252350 
	C609.450806,295.428772 595.971741,315.671082 584.971497,337.434662 
	C578.765381,349.713165 572.198853,361.905090 567.245117,374.697723 
	C560.441162,392.268097 554.352844,410.183563 549.204224,428.305267 
	C545.144226,442.595428 542.359009,457.327789 540.118164,472.032990 
	C537.730774,487.699158 536.360413,503.541595 535.114502,519.351868 
	C534.453369,527.741699 534.997498,536.226440 534.997498,545.105835 
	C481.086273,545.105835 427.691223,545.105835 374.284698,545.105835 
	C374.284698,641.608459 374.284698,737.665039 374.284698,834.002502 
	C376.542816,834.002502 378.516388,834.002502 380.489960,834.002502 
	C468.644928,834.002502 556.799927,833.986877 644.954773,834.091614 
	C647.178833,834.094238 650.006042,834.788879 651.524902,836.237549 
	C660.479858,844.778870 668.943787,853.837341 677.947449,862.324463 
	C684.136414,868.158569 690.564148,873.878357 697.530334,878.721130 
	C714.147400,890.273254 730.872620,901.716980 748.060486,912.388916 
	C769.688782,925.817810 792.774963,936.461731 816.772034,944.969910 
	C840.572083,953.408325 864.750183,960.632263 889.865234,963.973511 
	C907.351685,966.299866 924.900391,968.214233 942.460938,969.899658 
	C949.065857,970.533569 955.788208,970.179993 962.447266,969.968201 
	C980.297119,969.400696 998.238892,969.591553 1015.960022,967.729248 
	C1032.530273,965.987976 1048.991089,962.558533 1065.273926,958.873352 
	C1092.730103,952.659180 1119.452026,943.885193 1144.763794,931.496460 
	C1161.474243,923.317383 1178.083496,914.696167 1193.797485,904.781860 
	C1209.696289,894.750916 1224.631104,883.138977 1239.606934,871.719543 
	C1247.947998,865.359192 1255.619873,858.097961 1263.384155,851.013489 
	C1267.798828,846.985352 1272.182983,842.798950 1275.832520,838.102356 
	C1278.122925,835.154663 1280.273804,833.934204 1283.941650,833.937683 
	C1371.929932,834.020996 1459.918213,834.002502 1547.906616,834.002502 
	C1549.843872,834.002502 1551.781006,834.002502 1553.711426,834.002502 
	C1553.711426,737.383850 1553.711426,641.327271 1553.711426,544.997498 
	C1504.119995,544.997498 1454.818970,544.997498 1404.523071,544.997498 
z"/>
<path fill="#F8E823" opacity="1.000000" stroke="none" 
	d="
M1405.020508,544.997498 
	C1454.818970,544.997498 1504.119995,544.997498 1553.711426,544.997498 
	C1553.711426,641.327271 1553.711426,737.383850 1553.711426,834.002502 
	C1551.781006,834.002502 1549.843872,834.002502 1547.906616,834.002502 
	C1459.918213,834.002502 1371.929932,834.020996 1283.941650,833.937683 
	C1280.273804,833.934204 1278.122925,835.154663 1275.832520,838.102356 
	C1272.182983,842.798950 1267.798828,846.985352 1263.384155,851.013489 
	C1255.619873,858.097961 1247.947998,865.359192 1239.606934,871.719543 
	C1224.631104,883.138977 1209.696289,894.750916 1193.797485,904.781860 
	C1178.083496,914.696167 1161.474243,923.317383 1144.763794,931.496460 
	C1119.452026,943.885193 1092.730103,952.659180 1065.273926,958.873352 
	C1048.991089,962.558533 1032.530273,965.987976 1015.960022,967.729248 
	C998.238892,969.591553 980.297119,969.400696 962.447266,969.968201 
	C955.788208,970.179993 949.065857,970.533569 942.460938,969.899658 
	C924.900391,968.214233 907.351685,966.299866 889.865234,963.973511 
	C864.750183,960.632263 840.572083,953.408325 816.772034,944.969910 
	C792.774963,936.461731 769.688782,925.817810 748.060486,912.388916 
	C730.872620,901.716980 714.147400,890.273254 697.530334,878.721130 
	C690.564148,873.878357 684.136414,868.158569 677.947449,862.324463 
	C668.943787,853.837341 660.479858,844.778870 651.524902,836.237549 
	C650.006042,834.788879 647.178833,834.094238 644.954773,834.091614 
	C556.799927,833.986877 468.644928,834.002502 380.489960,834.002502 
	C378.516388,834.002502 376.542816,834.002502 374.284698,834.002502 
	C374.284698,737.665039 374.284698,641.608459 374.284698,545.105835 
	C427.691223,545.105835 481.086273,545.105835 534.997498,545.105835 
	C534.997498,536.226440 534.453369,527.741699 535.114502,519.351868 
	C536.360413,503.541595 537.730774,487.699158 540.118164,472.032990 
	C542.359009,457.327789 545.144226,442.595428 549.204224,428.305267 
	C554.352844,410.183563 560.441162,392.268097 567.245117,374.697723 
	C572.198853,361.905090 578.765381,349.713165 584.971497,337.434662 
	C595.971741,315.671082 609.450806,295.428772 624.428650,276.252350 
	C632.807190,265.525208 642.141846,255.536591 651.183228,245.337143 
	C675.259888,218.176697 703.575745,195.989899 734.049988,176.649231 
	C765.983093,156.382599 800.059570,140.311478 836.345276,129.388168 
	C857.585999,122.993950 879.251953,118.380531 901.209595,114.818634 
	C932.154846,109.798813 963.287476,110.144073 994.290222,111.347160 
	C1024.173462,112.506805 1053.520996,118.544479 1082.484131,126.580139 
	C1113.539185,135.196136 1142.948853,147.508316 1171.186035,162.738220 
	C1193.634399,174.845795 1215.056030,188.674255 1234.551514,205.181870 
	C1248.120728,216.671356 1261.721680,228.253937 1274.151001,240.929886 
	C1296.366943,263.586914 1315.586182,288.747864 1331.963989,315.972168 
	C1345.746826,338.883270 1358.253296,362.509552 1366.889893,387.866333 
	C1373.436768,407.088104 1379.294678,426.587189 1384.425781,446.232788 
	C1387.614990,458.443542 1389.589722,471.086975 1390.839478,483.662445 
	C1392.843506,503.825653 1393.794556,524.093506 1395.237549,544.997498 
	C1397.654541,544.997498 1401.088867,544.997498 1405.020508,544.997498 
M1375.749756,565.000000 
	C1371.048340,564.966858 1373.225586,561.381958 1373.320679,559.541992 
	C1375.570801,515.972351 1370.744751,473.141541 1358.879883,431.249725 
	C1332.059692,336.555634 1278.223389,260.632507 1197.653564,204.253571 
	C1137.796875,162.368744 1071.003906,138.807068 998.071289,132.660172 
	C961.490112,129.577072 925.181458,131.342621 889.214722,138.193710 
	C817.076660,151.934860 752.952881,182.625702 697.282471,230.669296 
	C644.485352,276.233246 605.767761,331.715942 581.259949,396.958405 
	C561.739685,448.923309 553.049927,502.719849 555.725769,558.259277 
	C555.827393,560.367920 555.738708,562.485779 555.738708,565.095459 
	C501.691772,565.095459 447.974548,565.095459 394.313477,565.095459 
	C394.313477,648.321350 394.313477,731.044434 394.313477,813.998657 
	C396.601349,813.998657 398.582672,813.998657 400.563965,813.998657 
	C485.384979,813.998657 570.205994,814.005432 655.026978,813.971130 
	C658.090637,813.969910 660.453430,814.413086 662.974304,816.831604 
	C678.458008,831.687195 693.390076,847.294312 710.088623,860.676025 
	C776.417358,913.829407 852.528259,942.711853 937.164124,948.916687 
	C975.880737,951.755188 1014.296082,948.693542 1052.227051,940.196045 
	C1135.903320,921.450439 1206.920044,880.641968 1265.226440,817.786987 
	C1267.857422,814.950806 1270.450195,813.919678 1274.237427,813.924072 
	C1358.724976,814.021423 1443.212769,813.998657 1527.700439,813.998657 
	C1529.656494,813.998657 1531.612549,813.998657 1533.775391,813.998657 
	C1533.775391,730.856689 1533.775391,648.133789 1533.775391,565.001343 
	C1481.271729,565.001343 1428.990356,565.001343 1375.749756,565.000000 
z"/>
<path fill="#010000" opacity="1.000000" stroke="none" 
	d="
M1376.229370,565.000671 
	C1428.990356,565.001343 1481.271729,565.001343 1533.775391,565.001343 
	C1533.775391,648.133789 1533.775391,730.856689 1533.775391,813.998657 
	C1531.612549,813.998657 1529.656494,813.998657 1527.700439,813.998657 
	C1443.212769,813.998657 1358.724976,814.021423 1274.237427,813.924072 
	C1270.450195,813.919678 1267.857422,814.950806 1265.226440,817.786987 
	C1206.920044,880.641968 1135.903320,921.450439 1052.227051,940.196045 
	C1014.296082,948.693542 975.880737,951.755188 937.164124,948.916687 
	C852.528259,942.711853 776.417358,913.829407 710.088623,860.676025 
	C693.390076,847.294312 678.458008,831.687195 662.974304,816.831604 
	C660.453430,814.413086 658.090637,813.969910 655.026978,813.971130 
	C570.205994,814.005432 485.384979,813.998657 400.563965,813.998657 
	C398.582672,813.998657 396.601349,813.998657 394.313477,813.998657 
	C394.313477,731.044434 394.313477,648.321350 394.313477,565.095459 
	C447.974548,565.095459 501.691772,565.095459 555.738708,565.095459 
	C555.738708,562.485779 555.827393,560.367920 555.725769,558.259277 
	C553.049927,502.719849 561.739685,448.923309 581.259949,396.958405 
	C605.767761,331.715942 644.485352,276.233246 697.282471,230.669296 
	C752.952881,182.625702 817.076660,151.934860 889.214722,138.193710 
	C925.181458,131.342621 961.490112,129.577072 998.071289,132.660172 
	C1071.003906,138.807068 1137.796875,162.368744 1197.653564,204.253571 
	C1278.223389,260.632507 1332.059692,336.555634 1358.879883,431.249725 
	C1370.744751,473.141541 1375.570801,515.972351 1373.320679,559.541992 
	C1373.225586,561.381958 1371.048340,564.966858 1376.229370,565.000671 
M902.043274,739.058228 
	C901.889648,738.903870 901.736084,738.749451 901.787842,737.945557 
	C912.238159,723.729431 922.573425,709.426880 933.166687,695.318115 
	C947.714844,675.942261 963.024597,657.345764 984.532959,644.971680 
	C988.164612,642.882202 991.345520,639.526184 993.885315,636.121704 
	C999.329956,628.823608 997.118347,621.987671 988.662842,618.626038 
	C986.832092,617.898193 984.856445,617.144958 982.932495,617.103516 
	C968.136292,616.784790 953.334839,616.711548 938.537964,616.416626 
	C926.231812,616.171387 913.931396,615.556763 901.625122,615.432678 
	C893.174438,615.347412 884.604309,615.051147 876.298523,616.277832 
	C868.971558,617.359863 866.208130,622.749146 867.057068,630.419556 
	C867.707581,636.296875 873.007507,640.944519 879.633667,640.950256 
	C899.632263,640.967529 919.630981,640.819153 939.629700,640.737305 
	C941.469360,640.729797 943.309021,640.736328 945.713013,640.736328 
	C940.093445,646.720215 934.553589,651.806824 929.968811,657.643677 
	C911.561829,681.077820 893.384644,704.693848 875.291870,728.372009 
	C872.089661,732.562805 869.150513,737.130798 867.032593,741.939819 
	C861.423401,754.676331 867.009521,763.124451 880.794067,762.968872 
	C907.787354,762.664246 934.777649,762.109070 961.770447,761.751465 
	C969.100037,761.654297 976.436218,762.041199 983.765320,761.931824 
	C990.118652,761.837097 995.288757,757.508667 995.936890,752.196045 
	C996.724243,745.742310 993.746521,741.281738 986.751892,739.465942 
	C983.095459,738.516724 979.195068,738.048401 975.416016,738.105286 
	C951.101318,738.471313 926.789673,739.042725 902.043274,739.058228 
M1094.852661,890.131897 
	C1095.191528,879.738342 1095.530518,869.344849 1096.388916,858.606812 
	C1096.830688,857.735474 1097.272461,856.864136 1098.058960,855.364136 
	C1099.018311,854.292175 1099.977661,853.220215 1101.309326,852.738647 
	C1102.875000,852.427063 1104.440674,852.115479 1106.621216,852.351868 
	C1107.787964,855.671631 1105.520874,860.401489 1111.172241,861.891479 
	C1114.927368,862.881470 1115.027954,866.041199 1114.793945,869.651489 
	C1114.341309,876.634094 1114.661865,883.666687 1114.661865,891.467529 
	C1119.810669,889.136108 1124.376831,886.901062 1129.078491,885.001343 
	C1131.963257,883.835815 1132.999146,882.134033 1132.895752,878.990234 
	C1132.503418,867.056702 1132.292969,855.114624 1132.249146,843.174866 
	C1132.243164,841.498291 1133.115479,839.366394 1134.320068,838.224548 
	C1137.612549,835.103271 1140.069336,831.755432 1140.655518,827.405396 
	C1141.686157,830.007263 1142.033203,833.356995 1143.890381,835.054810 
	C1147.729614,838.564758 1149.249023,842.387085 1149.094604,847.483521 
	C1148.830200,856.204590 1149.021606,864.939453 1149.021606,874.662598 
	C1179.442749,857.833008 1206.034180,838.011902 1230.798218,814.172729 
	C1199.548584,814.172729 1169.272583,814.172729 1138.068970,814.033325 
	C1055.032715,814.022705 971.996521,814.010437 888.960266,814.017090 
	C887.645447,814.017151 886.330627,814.249573 884.090027,814.190247 
	C882.928406,814.123657 881.766846,813.999023 880.605225,813.998840 
	C821.137817,813.989197 761.670471,813.989136 702.203064,813.997681 
	C701.143799,813.997864 700.084595,814.114929 698.188904,814.226868 
	C719.245911,834.303406 741.175903,851.628174 766.084595,866.568604 
	C766.242920,863.188843 766.429260,860.589111 766.475220,857.986877 
	C766.663208,847.342957 766.647522,847.342590 777.267517,846.831787 
	C782.019043,846.603271 788.092163,852.249023 788.107483,856.927063 
	C788.120911,861.031250 788.110229,865.135559 788.110229,868.790283 
	C792.110901,869.685974 796.445374,869.413025 798.367249,871.434204 
	C800.315369,873.482971 799.879456,877.798767 800.467957,881.013977 
	C804.222351,881.013977 807.940430,881.013977 812.174500,881.013977 
	C812.174500,876.610901 810.558411,871.118835 812.541870,869.006165 
	C815.760254,865.578064 814.417908,862.389404 814.811279,859.097168 
	C815.094360,856.727600 814.866394,854.296997 814.866394,851.491638 
	C820.492188,851.738586 825.220032,851.946167 829.534973,852.135559 
	C830.373962,865.138611 831.167725,877.440125 832.021179,890.667175 
	C833.895630,889.136292 834.587769,888.571045 835.209717,888.063110 
	C836.186951,889.219788 837.008118,890.191650 838.636902,892.119507 
	C839.370850,879.774841 839.973389,868.773621 840.701294,857.780701 
	C841.047913,852.545288 841.632996,847.325623 842.110107,842.098816 
	C842.601318,842.253906 843.092468,842.408997 843.583618,842.564026 
	C845.890259,842.453979 848.196899,842.343872 850.294922,842.243774 
	C851.012390,845.183289 850.971375,849.596863 852.423035,850.159546 
	C858.338928,852.452698 858.668274,856.239258 858.616760,861.836853 
	C858.491394,875.476562 859.437195,889.126160 859.945312,902.602661 
	C862.560669,903.521973 864.045044,904.043762 866.182129,904.794983 
	C866.182129,898.271179 866.182129,892.257080 866.182129,885.923767 
	C869.943054,885.717712 873.184265,885.540100 876.906311,885.336182 
	C876.906311,883.279724 876.930664,881.492432 876.902588,879.705933 
	C876.662048,864.401123 876.385681,849.096802 876.205261,833.791321 
	C876.186890,832.237366 876.180420,829.914917 877.104675,829.249451 
	C881.398682,826.157776 883.369385,821.770691 885.126343,817.788818 
	C886.694092,820.684265 888.463928,823.491760 889.773132,826.499756 
	C891.095642,829.538391 892.791748,832.749634 892.891724,835.930359 
	C893.496094,855.153137 893.850098,874.388550 893.894104,893.620605 
	C893.903625,897.784363 895.282593,899.911743 899.386902,901.270264 
	C899.851868,900.844604 900.316833,900.418945 900.930969,899.068176 
	C900.942444,893.949219 901.069336,888.826843 900.921753,883.712524 
	C900.834717,880.699890 901.938660,879.573364 904.976685,879.725952 
	C909.045166,879.930298 913.131775,879.776489 916.715149,879.776489 
	C917.876648,874.366516 918.923828,869.489502 920.526001,864.249084 
	C920.957825,863.013977 921.389648,861.778870 922.149719,861.138550 
	C922.706543,862.377136 922.997192,864.436707 923.864441,864.717834 
	C928.611450,866.256775 929.175110,869.885681 929.149353,873.979187 
	C929.118225,878.928406 929.152344,883.879395 929.027405,888.826233 
	C928.955383,891.679016 929.725708,893.708374 933.023010,894.841125 
	C933.153992,896.410400 933.284912,897.979614 933.415833,899.548889 
	C933.839172,899.538391 934.262451,899.527954 934.685791,899.517456 
	C934.808105,897.679016 934.930359,895.840515 935.419678,893.122070 
	C935.607422,881.412598 935.795166,869.703125 936.324829,857.364624 
	C936.436523,855.903564 936.548279,854.442566 937.520325,852.944214 
	C939.967285,852.964478 941.125977,852.003113 940.884888,849.316833 
	C940.603455,846.182312 940.708923,843.013062 941.143738,839.637085 
	C941.421021,839.404541 941.698303,839.171997 942.909363,839.057556 
	C945.721313,839.029480 948.538025,839.094971 951.344360,838.954590 
	C957.952820,838.624207 958.095398,838.760376 958.049805,845.254272 
	C957.999268,852.445068 958.038208,859.636475 958.038208,866.827576 
	C958.378601,867.142883 958.718933,867.458191 959.059326,867.773438 
	C963.837952,862.512451 969.459412,860.267639 976.392639,862.514771 
	C976.943054,863.299438 977.493469,864.084167 978.235535,865.429199 
	C978.797485,865.962891 979.359436,866.496521 980.158508,867.668518 
	C980.695007,868.631226 981.231506,869.593933 981.768005,870.556641 
	C982.160583,870.268127 982.553101,869.979675 982.945679,869.691162 
	C982.945679,868.793579 982.945679,867.895996 983.097412,866.151123 
	C984.748474,859.814758 986.399597,853.478394 988.594543,847.164062 
	C989.067200,847.431213 989.539856,847.698425 990.052612,848.727600 
	C991.633484,854.821655 993.214355,860.915710 994.490234,867.739990 
	C994.659424,869.493591 994.828552,871.247253 994.975891,873.933960 
	C995.100708,878.091614 995.088867,882.260254 995.423340,886.400940 
	C995.542725,887.878357 996.453430,889.309326 997.089783,890.722351 
	C997.692627,892.060791 998.636353,893.283081 999.033142,894.669983 
	C1000.199463,898.746887 1001.168457,902.880127 1002.234741,907.608154 
	C1002.899902,907.947510 1003.565002,908.286865 1004.230164,908.626221 
	C1004.289978,908.074646 1004.349854,907.523132 1004.674377,906.160034 
	C1006.362488,905.072144 1008.050537,903.984192 1010.143372,902.635437 
	C1011.593445,897.797729 1017.107056,898.081238 1021.083984,896.461548 
	C1021.292603,896.303772 1021.501282,896.146057 1021.950623,895.078491 
	C1021.950623,882.652466 1021.950623,870.226440 1021.950623,857.699341 
	C1026.617554,857.232544 1030.361694,856.525024 1034.097046,856.569336 
	C1038.714233,856.623962 1044.119995,862.986511 1044.124756,867.784668 
	C1044.128662,871.568237 1044.125732,875.351807 1044.125732,878.800354 
	C1047.959229,879.581970 1052.249756,879.227295 1054.181030,881.191895 
	C1056.163086,883.208069 1055.838989,887.491272 1056.531738,890.819214 
	C1060.163208,890.819214 1063.850220,890.819214 1067.643799,890.819214 
	C1067.845703,886.446960 1066.538696,881.190308 1068.576782,878.863037 
	C1071.307861,875.744629 1070.554688,872.986511 1070.805176,869.984375 
	C1071.021484,867.391785 1070.850098,864.766907 1070.850098,862.210449 
	C1076.281982,862.210449 1081.121338,862.210449 1085.421631,862.210449 
	C1086.314453,873.250610 1087.154175,883.634827 1087.683350,894.480164 
	C1087.799438,894.982666 1087.915649,895.485168 1088.025391,896.683472 
	C1088.190552,897.114258 1088.355835,897.545105 1088.380493,898.596313 
	C1088.770630,899.003235 1089.160889,899.410095 1089.551025,899.817017 
	C1089.733765,899.223694 1089.916382,898.630371 1090.829712,897.931152 
	C1091.798828,898.559570 1092.767822,899.188049 1094.686157,900.432068 
	C1094.686157,897.041321 1094.686157,894.524780 1094.816284,891.499634 
	C1094.771973,891.330383 1094.727539,891.161072 1094.852661,890.131897 
M1022.714539,217.031387 
	C1028.852051,214.778641 1034.959961,212.441147 1041.132812,210.289902 
	C1056.242188,205.024323 1070.646240,205.859116 1084.175537,215.169785 
	C1088.187134,217.930527 1092.194336,220.600037 1097.765137,219.956696 
	C1102.584229,219.400162 1103.987427,222.370407 1102.214355,226.985825 
	C1101.658813,228.432083 1101.578125,231.376587 1102.304932,231.777496 
	C1105.927979,233.776184 1109.792847,236.091934 1113.762085,236.513626 
	C1118.582886,237.025803 1122.697388,237.641495 1126.149536,241.483276 
	C1128.162231,243.723190 1130.999878,245.310959 1133.657837,246.864410 
	C1140.248413,250.716217 1142.977417,256.083923 1139.996704,260.675232 
	C1137.953369,263.822479 1135.609863,266.546753 1135.628418,270.702972 
	C1135.635254,272.232330 1133.729980,273.770172 1132.637451,275.392242 
	C1125.287842,268.421112 1118.483521,268.918884 1109.566162,275.480988 
	C1100.611694,270.205658 1096.581299,271.363800 1091.923706,280.542908 
	C1091.624268,281.132843 1091.285645,281.703400 1090.952637,282.275574 
	C1087.714478,287.838440 1088.903320,290.994019 1093.742798,294.940399 
	C1100.053223,300.086212 1105.714111,306.028381 1111.658203,311.623871 
	C1115.158447,314.918793 1118.666016,318.205963 1122.640137,321.937805 
	C1120.421387,330.978210 1117.807373,333.276459 1108.021606,332.109314 
	C1097.472046,330.851074 1087.466309,327.419403 1079.022461,320.861298 
	C1075.013062,317.747437 1072.424194,318.145172 1069.437988,321.615387 
	C1066.682983,324.817139 1063.459106,326.998352 1059.011841,327.565826 
	C1048.854858,328.861755 1043.529419,334.842133 1041.560303,344.966400 
	C1040.009766,352.939331 1037.237549,360.720612 1034.497437,368.404999 
	C1030.812744,378.738312 1031.336548,387.411652 1041.072510,394.562714 
	C1048.835938,400.265137 1052.663696,408.103241 1051.420410,418.332092 
	C1050.568604,425.339539 1053.061035,431.711212 1059.146362,436.022949 
	C1063.827271,439.339447 1068.625366,442.493042 1073.417725,445.648773 
	C1078.977051,449.309692 1084.446533,453.133270 1085.070801,460.499237 
	C1085.463501,465.134674 1085.191406,469.825043 1085.254883,474.490234 
	C1085.320068,479.274963 1086.751953,480.310699 1091.315063,479.309937 
	C1096.897949,478.085541 1102.522827,476.163177 1108.126953,476.172272 
	C1113.892944,476.181610 1119.631104,478.312408 1125.427734,479.218353 
	C1130.608154,480.028046 1135.984253,481.458405 1141.039795,480.804230 
	C1151.593018,479.438660 1157.663330,472.092621 1158.818726,461.178650 
	C1159.469482,455.030762 1163.428955,452.730865 1168.468262,455.900940 
	C1171.648560,457.901550 1174.356201,457.980774 1177.728027,456.333740 
	C1180.434448,455.011658 1183.651978,454.775085 1186.568848,453.829224 
	C1188.140869,453.319519 1189.739990,452.552612 1191.003662,451.509949 
	C1193.114380,449.768463 1194.795654,447.489410 1196.964111,445.839203 
	C1200.669434,443.019409 1205.044678,440.955139 1208.333130,437.747650 
	C1211.674683,434.488373 1214.059204,430.471344 1219.761230,431.633057 
	C1220.897461,431.864502 1222.526123,430.636047 1223.664429,429.744659 
	C1230.710571,424.226593 1235.783691,426.049866 1238.770752,435.661987 
	C1237.478882,435.865845 1236.238770,436.045502 1235.004639,436.259247 
	C1231.611938,436.846863 1229.246582,438.867767 1229.979614,442.283020 
	C1230.666748,445.484680 1233.301025,445.025452 1236.023438,444.069366 
	C1238.897827,443.059875 1242.734131,441.358337 1244.891846,442.448914 
	C1249.466064,444.760773 1253.222656,448.690735 1257.970337,452.480804 
	C1254.667358,453.199707 1252.484009,453.173340 1250.870117,454.118927 
	C1245.746216,457.121063 1240.239990,457.650970 1234.586426,457.107239 
	C1229.923218,456.658813 1227.725952,459.449493 1225.763550,462.881744 
	C1224.328125,465.392242 1225.264282,466.941528 1227.897705,466.730347 
	C1232.586670,466.354340 1237.399536,466.019562 1241.859131,464.670685 
	C1247.383789,462.999634 1254.367432,467.102814 1253.681030,472.954407 
	C1250.600708,473.335052 1247.386597,473.929199 1244.150391,474.097321 
	C1231.702271,474.743866 1221.945312,481.766296 1214.878906,490.421173 
	C1206.149780,501.112488 1196.550903,506.432251 1183.003540,505.294006 
	C1180.572266,505.089691 1177.798584,505.327271 1175.631714,506.330231 
	C1170.453491,508.727051 1165.471680,511.580597 1160.536865,514.465515 
	C1143.034424,524.697083 1125.357300,534.531006 1105.920654,540.754944 
	C1093.407227,544.761963 1081.416870,545.282959 1070.439819,536.483398 
	C1067.960693,534.495911 1065.377930,532.876282 1061.914673,535.412964 
	C1060.730713,536.280212 1057.873169,536.088318 1056.475708,535.237793 
	C1047.909302,530.023560 1039.427246,524.649109 1031.161621,518.972168 
	C1027.461792,516.431091 1024.709595,516.378906 1021.934204,520.045349 
	C1014.310547,530.116638 1006.715454,540.209656 999.057800,550.255005 
	C996.255432,553.931152 992.738831,554.177917 989.234070,551.334412 
	C987.811584,550.180298 986.067566,549.422546 984.469849,548.484436 
	C983.745178,550.532166 982.897400,552.547424 982.346558,554.640930 
	C982.059509,555.731934 982.289490,556.960815 982.296814,558.127319 
	C982.337036,564.523865 982.795288,564.998596 989.119812,564.998779 
	C1106.112915,565.001648 1223.105957,565.000916 1340.099121,565.000916 
	C1341.847046,565.000916 1343.594849,565.000916 1346.487793,565.000916 
	C1348.813599,414.570679 1291.428223,295.681396 1163.661133,215.289444 
	C1035.538818,134.673889 868.088196,138.662430 742.184937,230.556473 
	C629.622681,312.713226 579.386414,426.025208 582.786194,564.740601 
	C625.963196,564.740601 668.067139,564.740601 710.171570,564.736023 
	C713.119873,558.308350 713.225098,556.188477 710.226624,552.125854 
	C708.177063,549.348938 705.986816,546.636841 703.568298,544.182739 
	C701.380920,541.963135 701.009888,539.816467 704.102417,538.891968 
	C710.423340,537.002625 712.022949,532.908752 711.006470,526.963135 
	C710.855408,526.079285 711.295959,524.994629 711.725647,524.134155 
	C712.398926,522.785828 713.296204,521.549316 714.098572,520.265442 
	C715.358337,521.244202 717.242981,521.973328 717.753418,523.251404 
	C718.982239,526.327515 721.246399,527.702209 723.932129,526.646240 
	C726.052368,525.812622 728.386353,523.796753 729.235840,521.733826 
	C735.265381,507.091949 737.216248,491.680664 736.914612,475.944489 
	C736.837158,471.906372 734.794250,470.809998 730.436035,472.134552 
	C728.072815,472.852783 725.697998,473.532806 723.010071,474.323730 
	C724.455505,469.796021 725.932861,466.164764 726.724731,462.389740 
	C727.427246,459.041260 725.874329,456.899658 722.057129,457.159454 
	C716.451111,457.540955 710.847046,457.971283 705.235657,458.248962 
	C702.200195,458.399170 699.151245,458.275696 696.108337,458.275696 
	C695.870789,457.774139 695.633179,457.272552 695.395569,456.770996 
	C699.163696,452.710968 702.816956,448.535339 706.744385,444.635803 
	C708.973999,442.422089 709.323303,440.638245 707.009277,438.343384 
	C703.250244,434.615509 699.627747,430.750397 695.916992,426.973358 
	C689.751343,420.697662 690.193176,418.692963 698.799194,415.804626 
	C705.308228,413.620026 711.938416,411.799072 718.489014,409.735077 
	C724.768921,407.756409 726.272827,404.441467 724.246338,398.235413 
	C722.754150,393.665375 721.645325,388.970154 720.033997,383.128235 
	C722.816162,384.343964 724.805847,384.921204 726.467834,386.002167 
	C729.647095,388.069885 732.661987,390.394745 735.703979,392.667816 
	C738.794250,394.976929 741.830994,397.101929 745.171448,393.046783 
	C749.214722,388.138397 749.655884,382.906128 745.983643,379.631317 
	C740.978394,375.167816 735.786804,370.913300 729.702271,365.742462 
	C732.966309,364.567047 735.232361,363.487396 737.620361,362.939484 
	C745.427734,361.148102 748.455566,356.798370 746.989502,349.057922 
	C746.382629,345.853943 745.315796,343.383118 741.382568,342.684692 
	C738.422302,342.159058 735.690247,340.348450 732.605286,338.999939 
	C736.303467,335.538818 739.317444,332.718048 742.331360,329.897278 
	C742.835510,328.901947 744.001099,329.002380 745.144287,328.885254 
	C751.478333,328.236359 753.684631,326.489349 750.063843,319.550018 
	C749.377197,318.234100 748.528381,317.003845 747.802490,315.707153 
	C746.335876,313.087189 744.902283,310.448761 742.932312,306.867584 
	C746.590088,306.867584 749.033630,306.883698 751.476929,306.864899 
	C765.542175,306.756683 767.336670,309.583069 766.940063,291.330261 
	C766.845825,286.994446 766.926025,282.654816 766.926025,278.316956 
	C768.845337,278.891113 769.659363,279.505341 770.083435,280.322021 
	C773.714966,287.316010 777.232117,294.369568 780.880432,301.354645 
	C782.242249,303.962036 783.700867,306.730988 786.681458,305.576294 
	C787.846619,299.279175 789.282471,293.756195 789.790283,288.149170 
	C790.305481,282.461273 789.904053,276.690338 789.904053,270.132629 
	C794.939392,271.407257 799.864624,272.535278 804.717163,273.918243 
	C808.942932,275.122620 810.983337,273.742889 811.265015,269.334991 
	C811.626953,263.671326 812.124756,258.016357 812.564026,252.357651 
	C814.566223,253.034317 815.412781,253.934143 816.100525,254.942322 
	C818.314087,258.187531 820.191345,261.718811 822.772278,264.631104 
	C823.933838,265.941742 826.645508,266.833038 828.294617,266.433105 
	C829.461182,266.150238 830.070740,263.400177 830.830872,261.707428 
	C831.084961,261.141602 831.035461,260.439453 831.148743,259.627197 
	C834.562927,260.745300 837.761536,261.852509 840.997803,262.835968 
	C844.280945,263.833649 847.688171,264.478638 850.887146,265.685944 
	C857.577759,268.211029 858.920898,267.927185 862.183472,261.793152 
	C863.772583,258.805542 865.396790,257.646942 868.104065,260.527893 
	C871.155701,263.775238 873.846191,262.799652 876.376770,259.787994 
	C878.495300,257.266785 880.859070,254.927139 882.762512,252.256378 
	C884.807007,249.387665 886.528687,250.849701 886.974731,252.836151 
	C888.218750,258.374939 890.966003,260.411530 896.535156,257.688141 
	C897.687439,260.273346 898.484985,262.622894 899.726990,264.707581 
	C901.289185,267.329681 905.464905,267.275330 905.493286,264.788910 
	C905.564026,258.595551 909.279297,257.375214 914.017273,256.279480 
	C915.411743,255.956985 916.644409,254.291611 917.629700,252.997025 
	C919.053406,251.126373 920.184143,249.032700 921.919006,246.271744 
	C923.771179,251.479874 925.242432,256.062073 930.258057,258.045410 
	C931.252258,258.438507 931.605103,260.253113 932.472412,261.214935 
	C933.727539,262.606750 935.047058,264.014771 936.578064,265.068787 
	C940.446350,267.731842 944.054443,265.299500 947.471497,263.915833 
	C955.241943,260.769348 962.676514,256.709229 970.586670,254.016434 
	C978.104248,251.457260 984.064331,247.427673 988.157166,240.727478 
	C992.266052,234.000931 997.301819,228.191925 1004.486694,224.763718 
	C1010.198792,222.038239 1016.175903,219.868362 1022.714539,217.031387 
M497.683014,628.875305 
	C486.414459,624.049011 475.162384,619.183716 463.866455,614.422363 
	C460.824646,613.140259 457.729889,611.672485 454.520416,611.159424 
	C445.832458,609.770386 437.160583,618.398682 437.141785,628.175964 
	C437.082001,659.295532 437.121857,690.415527 436.996246,721.534729 
	C436.965363,729.185669 436.291168,736.832703 436.204315,744.484863 
	C436.116791,752.193298 440.043457,756.926331 447.506683,758.725769 
	C448.464020,758.956665 449.525635,758.973267 450.372742,759.410889 
	C466.109833,767.540039 482.775116,768.011292 499.927368,766.022888 
	C547.773438,760.476074 572.642151,705.825134 545.149841,666.093933 
	C533.368164,649.067322 517.082275,637.530457 497.683014,628.875305 
M728.486389,707.784851 
	C728.044067,719.935425 727.465698,732.083130 727.207642,744.237610 
	C727.037537,752.251099 730.967651,756.920410 738.769409,758.766907 
	C739.570557,758.956543 740.477417,758.918030 741.177063,759.286072 
	C757.049866,767.634827 773.903137,767.961243 791.231689,766.016479 
	C833.196167,761.306885 859.605774,715.511780 842.289612,677.017517 
	C834.630737,659.991699 821.991577,646.976746 806.011414,638.297607 
	C788.146179,628.594727 769.176758,620.883179 750.506409,612.720215 
	C739.499268,607.907715 728.180481,615.799011 728.164612,627.902710 
	C728.151672,637.730652 728.522888,647.558655 728.562866,657.387268 
	C728.629883,673.872681 728.568909,690.358704 728.486389,707.784851 
M1441.862549,623.291626 
	C1440.664307,624.676575 1439.297241,625.949524 1438.293213,627.463379 
	C1422.961060,650.581299 1407.618408,673.692871 1392.449341,696.917725 
	C1390.406372,700.045593 1388.416138,702.543945 1384.859375,704.265076 
	C1382.692627,705.313599 1380.026123,708.938538 1380.392578,710.874573 
	C1381.198486,715.132874 1379.438477,718.173767 1377.928833,721.558228 
	C1374.823364,728.520081 1371.567383,735.422668 1368.739502,742.495972 
	C1367.808105,744.825562 1367.395508,747.708191 1367.807861,750.159241 
	C1368.741577,755.709106 1372.840698,758.675781 1378.020630,759.815979 
	C1384.433960,761.227783 1389.740356,758.947327 1392.828247,753.195740 
	C1397.615601,744.279297 1401.890137,735.088440 1406.613037,726.135742 
	C1407.372925,724.695557 1409.235229,723.094910 1410.750854,722.911133 
	C1424.722412,721.216919 1438.729736,719.818359 1452.888062,718.316650 
	C1453.400879,720.005920 1453.776123,721.254883 1454.158813,722.501465 
	C1457.811279,734.398804 1461.405396,746.297974 1469.054321,756.470764 
	C1475.608154,765.186890 1486.984741,760.238586 1489.165039,753.347229 
	C1490.231445,749.976990 1489.972412,745.739685 1488.994019,742.266663 
	C1487.159546,735.755310 1483.616089,729.687439 1482.102417,723.130615 
	C1476.064087,696.973083 1470.583374,670.687439 1464.778442,644.475220 
	C1463.386108,638.188232 1462.128174,631.765808 1459.746460,625.831970 
	C1457.139038,619.335754 1447.477661,615.581116 1441.862549,623.291626 
M698.727112,627.947449 
	C698.981934,620.762451 696.189087,616.155701 690.132690,613.770935 
	C684.439331,611.529114 678.329895,612.664246 674.592590,618.244019 
	C669.827271,625.358582 665.379944,632.888611 662.161987,640.795654 
	C655.039062,658.298035 648.806580,676.161682 642.135254,693.849426 
	C639.237732,701.531677 636.153381,709.143494 633.153870,716.787231 
	C626.988770,699.365173 621.862122,682.096191 616.939758,664.769165 
	C613.180359,651.535645 609.784546,638.198792 606.023865,624.965637 
	C603.802795,617.150330 597.851868,613.681335 589.957947,615.135437 
	C583.079407,616.402466 578.927490,622.429199 579.790405,629.979065 
	C580.035095,632.120178 580.215576,634.306335 580.801636,636.364746 
	C587.698853,660.590820 594.348755,684.894226 601.729248,708.973328 
	C606.680664,725.127563 612.552795,741.007507 618.312439,756.901672 
	C620.238220,762.216187 624.220825,765.540222 630.281799,766.023926 
	C636.677002,766.534241 641.265320,764.088806 644.165588,758.440674 
	C646.444031,754.003601 648.839417,749.611206 650.836975,745.047546 
	C667.644592,706.648499 678.414062,665.775757 698.727112,627.947449 
M1044.069092,729.415710 
	C1044.069092,731.188599 1044.069092,732.961426 1044.069092,734.868530 
	C1040.782104,735.061768 1037.979614,735.211060 1035.179321,735.395569 
	C1032.353638,735.581848 1029.520142,735.715393 1026.709473,736.040955 
	C1024.921143,736.247986 1023.030579,736.460754 1021.425293,737.194763 
	C1016.240417,739.565430 1013.234192,745.495056 1014.282837,750.762634 
	C1015.457764,756.664490 1020.493591,761.148071 1026.714966,760.922485 
	C1044.339600,760.283264 1061.951416,759.300415 1079.571045,758.512817 
	C1085.562866,758.244995 1091.564575,758.205444 1097.558228,757.969604 
	C1103.710327,757.727661 1108.552124,753.435913 1109.671875,747.374023 
	C1110.670532,741.966675 1107.334229,735.669495 1101.912231,733.696838 
	C1099.328125,732.756592 1096.391602,732.517578 1093.603760,732.456726 
	C1086.178101,732.294678 1078.746460,732.401672 1072.228394,732.401672 
	C1072.228394,703.131897 1072.228394,673.804932 1072.228394,644.533569 
	C1082.091919,645.067078 1090.716064,645.742249 1099.351196,645.937683 
	C1106.901978,646.108643 1112.451172,641.006104 1112.877319,634.131836 
	C1113.368774,626.205505 1109.416870,621.152344 1101.364746,620.018494 
	C1076.533936,616.521790 1051.555542,616.653809 1026.566895,617.273621 
	C1025.581055,617.298035 1024.596802,617.568726 1023.620667,617.767944 
	C1015.721741,619.380066 1011.501465,624.446411 1012.129822,631.546265 
	C1012.734131,638.374695 1018.224731,642.944641 1025.983643,642.994934 
	C1032.587891,643.037720 1039.192627,643.003723 1044.765869,643.003723 
	C1044.529785,671.822266 1044.297974,700.129089 1044.069092,729.415710 
M1161.701660,634.533325 
	C1161.697388,631.535339 1161.882080,628.522705 1161.651245,625.542236 
	C1161.083740,618.215637 1156.089600,613.270691 1149.250244,613.015686 
	C1140.260376,612.680481 1135.286011,617.768127 1134.975952,626.989685 
	C1133.671997,665.757690 1132.479248,704.532166 1130.720947,743.280518 
	C1130.086914,757.255554 1136.787354,765.999390 1150.706421,765.862610 
	C1160.988525,765.761719 1171.389893,765.372192 1181.504639,763.699280 
	C1195.039307,761.460815 1208.491577,758.367554 1221.702759,754.656677 
	C1230.205933,752.268066 1233.266235,745.450317 1230.911377,738.033752 
	C1228.519287,730.500061 1221.984009,727.485413 1213.239136,729.740295 
	C1205.378418,731.767273 1197.551880,734.029114 1189.585327,735.518921 
	C1179.087402,737.482056 1168.467285,738.791931 1158.256104,740.329041 
	C1159.427734,704.650757 1160.562744,670.086670 1161.701660,634.533325 
M1277.853760,679.479553 
	C1278.143677,662.160339 1278.519775,644.841919 1278.686157,627.521484 
	C1278.766724,619.138428 1273.887695,613.453857 1266.734253,613.028137 
	C1257.487915,612.477844 1252.290283,617.615601 1251.974976,627.005066 
	C1250.673340,665.773010 1249.478149,704.547302 1247.718506,743.295410 
	C1247.084473,757.259277 1253.793945,766.001465 1267.721313,765.863037 
	C1278.003540,765.760986 1288.404907,765.371765 1298.519531,763.698242 
	C1312.054077,761.458801 1325.506348,758.364746 1338.716797,754.652161 
	C1347.213013,752.264465 1350.271362,745.433228 1347.908936,738.019287 
	C1345.507812,730.483521 1338.985718,727.484558 1330.225220,729.744751 
	C1322.364624,731.772705 1314.538330,734.034973 1306.571655,735.523865 
	C1296.075439,737.485413 1285.457031,738.792175 1274.579590,740.427307 
	C1275.710571,719.612732 1276.773926,700.041260 1277.853760,679.479553 
M1083.492676,229.006592 
	C1081.030518,227.740616 1078.586182,226.438721 1076.102417,225.216690 
	C1071.839355,223.119324 1068.132446,224.114883 1064.754639,227.245026 
	C1062.080200,229.723389 1063.012939,231.023651 1065.720703,232.903641 
	C1072.366821,237.517807 1078.973999,232.611450 1086.865479,234.256989 
	C1085.458618,231.831802 1084.773071,230.650162 1083.492676,229.006592 
z"/>
<path fill="#EA0104" opacity="1.000000" stroke="none" 
	d="
M1022.375000,217.241608 
	C1016.175903,219.868362 1010.198792,222.038239 1004.486694,224.763718 
	C997.301819,228.191925 992.266052,234.000931 988.157166,240.727478 
	C984.064331,247.427673 978.104248,251.457260 970.586670,254.016434 
	C962.676514,256.709229 955.241943,260.769348 947.471497,263.915833 
	C944.054443,265.299500 940.446350,267.731842 936.578064,265.068787 
	C935.047058,264.014771 933.727539,262.606750 932.472412,261.214935 
	C931.605103,260.253113 931.252258,258.438507 930.258057,258.045410 
	C925.242432,256.062073 923.771179,251.479874 921.919006,246.271744 
	C920.184143,249.032700 919.053406,251.126373 917.629700,252.997025 
	C916.644409,254.291611 915.411743,255.956985 914.017273,256.279480 
	C909.279297,257.375214 905.564026,258.595551 905.493286,264.788910 
	C905.464905,267.275330 901.289185,267.329681 899.726990,264.707581 
	C898.484985,262.622894 897.687439,260.273346 896.535156,257.688141 
	C890.966003,260.411530 888.218750,258.374939 886.974731,252.836151 
	C886.528687,250.849701 884.807007,249.387665 882.762512,252.256378 
	C880.859070,254.927139 878.495300,257.266785 876.376770,259.787994 
	C873.846191,262.799652 871.155701,263.775238 868.104065,260.527893 
	C865.396790,257.646942 863.772583,258.805542 862.183472,261.793152 
	C858.920898,267.927185 857.577759,268.211029 850.887146,265.685944 
	C847.688171,264.478638 844.280945,263.833649 840.997803,262.835968 
	C837.761536,261.852509 834.562927,260.745300 831.148743,259.627197 
	C831.035461,260.439453 831.084961,261.141602 830.830872,261.707428 
	C830.070740,263.400177 829.461182,266.150238 828.294617,266.433105 
	C826.645508,266.833038 823.933838,265.941742 822.772278,264.631104 
	C820.191345,261.718811 818.314087,258.187531 816.100525,254.942322 
	C815.412781,253.934143 814.566223,253.034317 812.564026,252.357651 
	C812.124756,258.016357 811.626953,263.671326 811.265015,269.334991 
	C810.983337,273.742889 808.942932,275.122620 804.717163,273.918243 
	C799.864624,272.535278 794.939392,271.407257 789.904053,270.132629 
	C789.904053,276.690338 790.305481,282.461273 789.790283,288.149170 
	C789.282471,293.756195 787.846619,299.279175 786.681458,305.576294 
	C783.700867,306.730988 782.242249,303.962036 780.880432,301.354645 
	C777.232117,294.369568 773.714966,287.316010 770.083435,280.322021 
	C769.659363,279.505341 768.845337,278.891113 766.926025,278.316956 
	C766.926025,282.654816 766.845825,286.994446 766.940063,291.330261 
	C767.336670,309.583069 765.542175,306.756683 751.476929,306.864899 
	C749.033630,306.883698 746.590088,306.867584 742.932312,306.867584 
	C744.902283,310.448761 746.335876,313.087189 747.802490,315.707153 
	C748.528381,317.003845 749.377197,318.234100 750.063843,319.550018 
	C753.684631,326.489349 751.478333,328.236359 745.144287,328.885254 
	C744.001099,329.002380 742.835510,328.901947 742.331360,329.897278 
	C739.317444,332.718048 736.303467,335.538818 732.605286,338.999939 
	C735.690247,340.348450 738.422302,342.159058 741.382568,342.684692 
	C745.315796,343.383118 746.382629,345.853943 746.989502,349.057922 
	C748.455566,356.798370 745.427734,361.148102 737.620361,362.939484 
	C735.232361,363.487396 732.966309,364.567047 729.702271,365.742462 
	C735.786804,370.913300 740.978394,375.167816 745.983643,379.631317 
	C749.655884,382.906128 749.214722,388.138397 745.171448,393.046783 
	C741.830994,397.101929 738.794250,394.976929 735.703979,392.667816 
	C732.661987,390.394745 729.647095,388.069885 726.467834,386.002167 
	C724.805847,384.921204 722.816162,384.343964 720.033997,383.128235 
	C721.645325,388.970154 722.754150,393.665375 724.246338,398.235413 
	C726.272827,404.441467 724.768921,407.756409 718.489014,409.735077 
	C711.938416,411.799072 705.308228,413.620026 698.799194,415.804626 
	C690.193176,418.692963 689.751343,420.697662 695.916992,426.973358 
	C699.627747,430.750397 703.250244,434.615509 707.009277,438.343384 
	C709.323303,440.638245 708.973999,442.422089 706.744385,444.635803 
	C702.816956,448.535339 699.163696,452.710968 695.395569,456.770996 
	C695.633179,457.272552 695.870789,457.774139 696.108337,458.275696 
	C699.151245,458.275696 702.200195,458.399170 705.235657,458.248962 
	C710.847046,457.971283 716.451111,457.540955 722.057129,457.159454 
	C725.874329,456.899658 727.427246,459.041260 726.724731,462.389740 
	C725.932861,466.164764 724.455505,469.796021 723.010071,474.323730 
	C725.697998,473.532806 728.072815,472.852783 730.436035,472.134552 
	C734.794250,470.809998 736.837158,471.906372 736.914612,475.944489 
	C737.216248,491.680664 735.265381,507.091949 729.235840,521.733826 
	C728.386353,523.796753 726.052368,525.812622 723.932129,526.646240 
	C721.246399,527.702209 718.982239,526.327515 717.753418,523.251404 
	C717.242981,521.973328 715.358337,521.244202 714.098572,520.265442 
	C713.296204,521.549316 712.398926,522.785828 711.725647,524.134155 
	C711.295959,524.994629 710.855408,526.079285 711.006470,526.963135 
	C712.022949,532.908752 710.423340,537.002625 704.102417,538.891968 
	C701.009888,539.816467 701.380920,541.963135 703.568298,544.182739 
	C705.986816,546.636841 708.177063,549.348938 710.226624,552.125854 
	C713.225098,556.188477 713.119873,558.308350 710.171265,564.738281 
	C668.067139,564.740601 625.963196,564.740601 582.786194,564.740601 
	C579.386414,426.025208 629.622681,312.713226 742.184937,230.556473 
	C868.088196,138.662430 1035.538818,134.673889 1163.661133,215.289444 
	C1291.428223,295.681396 1348.813599,414.570679 1346.487793,565.000916 
	C1343.594849,565.000916 1341.847046,565.000916 1340.099121,565.000916 
	C1223.105957,565.000916 1106.112915,565.001648 989.119812,564.998779 
	C982.795288,564.998596 982.337036,564.523865 982.296814,558.127319 
	C982.289490,556.960815 982.059509,555.731934 982.346558,554.640930 
	C982.897400,552.547424 983.745178,550.532166 984.469849,548.484436 
	C986.067566,549.422546 987.811584,550.180298 989.234070,551.334412 
	C992.738831,554.177917 996.255432,553.931152 999.057800,550.255005 
	C1006.715454,540.209656 1014.310547,530.116638 1021.934204,520.045349 
	C1024.709595,516.378906 1027.461792,516.431091 1031.161621,518.972168 
	C1039.427246,524.649109 1047.909302,530.023560 1056.475708,535.237793 
	C1057.873169,536.088318 1060.730713,536.280212 1061.914673,535.412964 
	C1065.377930,532.876282 1067.960693,534.495911 1070.439819,536.483398 
	C1081.416870,545.282959 1093.407227,544.761963 1105.920654,540.754944 
	C1125.357300,534.531006 1143.034424,524.697083 1160.536865,514.465515 
	C1165.471680,511.580597 1170.453491,508.727051 1175.631714,506.330231 
	C1177.798584,505.327271 1180.572266,505.089691 1183.003540,505.294006 
	C1196.550903,506.432251 1206.149780,501.112488 1214.878906,490.421173 
	C1221.945312,481.766296 1231.702271,474.743866 1244.150391,474.097321 
	C1247.386597,473.929199 1250.600708,473.335052 1253.681030,472.954407 
	C1254.367432,467.102814 1247.383789,462.999634 1241.859131,464.670685 
	C1237.399536,466.019562 1232.586670,466.354340 1227.897705,466.730347 
	C1225.264282,466.941528 1224.328125,465.392242 1225.763550,462.881744 
	C1227.725952,459.449493 1229.923218,456.658813 1234.586426,457.107239 
	C1240.239990,457.650970 1245.746216,457.121063 1250.870117,454.118927 
	C1252.484009,453.173340 1254.667358,453.199707 1257.970337,452.480804 
	C1253.222656,448.690735 1249.466064,444.760773 1244.891846,442.448914 
	C1242.734131,441.358337 1238.897827,443.059875 1236.023438,444.069366 
	C1233.301025,445.025452 1230.666748,445.484680 1229.979614,442.283020 
	C1229.246582,438.867767 1231.611938,436.846863 1235.004639,436.259247 
	C1236.238770,436.045502 1237.478882,435.865845 1238.770752,435.661987 
	C1235.783691,426.049866 1230.710571,424.226593 1223.664429,429.744659 
	C1222.526123,430.636047 1220.897461,431.864502 1219.761230,431.633057 
	C1214.059204,430.471344 1211.674683,434.488373 1208.333130,437.747650 
	C1205.044678,440.955139 1200.669434,443.019409 1196.964111,445.839203 
	C1194.795654,447.489410 1193.114380,449.768463 1191.003662,451.509949 
	C1189.739990,452.552612 1188.140869,453.319519 1186.568848,453.829224 
	C1183.651978,454.775085 1180.434448,455.011658 1177.728027,456.333740 
	C1174.356201,457.980774 1171.648560,457.901550 1168.468262,455.900940 
	C1163.428955,452.730865 1159.469482,455.030762 1158.818726,461.178650 
	C1157.663330,472.092621 1151.593018,479.438660 1141.039795,480.804230 
	C1135.984253,481.458405 1130.608154,480.028046 1125.427734,479.218353 
	C1119.631104,478.312408 1113.892944,476.181610 1108.126953,476.172272 
	C1102.522827,476.163177 1096.897949,478.085541 1091.315063,479.309937 
	C1086.751953,480.310699 1085.320068,479.274963 1085.254883,474.490234 
	C1085.191406,469.825043 1085.463501,465.134674 1085.070801,460.499237 
	C1084.446533,453.133270 1078.977051,449.309692 1073.417725,445.648773 
	C1068.625366,442.493042 1063.827271,439.339447 1059.146362,436.022949 
	C1053.061035,431.711212 1050.568604,425.339539 1051.420410,418.332092 
	C1052.663696,408.103241 1048.835938,400.265137 1041.072510,394.562714 
	C1031.336548,387.411652 1030.812744,378.738312 1034.497437,368.404999 
	C1037.237549,360.720612 1040.009766,352.939331 1041.560303,344.966400 
	C1043.529419,334.842133 1048.854858,328.861755 1059.011841,327.565826 
	C1063.459106,326.998352 1066.682983,324.817139 1069.437988,321.615387 
	C1072.424194,318.145172 1075.013062,317.747437 1079.022461,320.861298 
	C1087.466309,327.419403 1097.472046,330.851074 1108.021606,332.109314 
	C1117.807373,333.276459 1120.421387,330.978210 1122.640137,321.937805 
	C1118.666016,318.205963 1115.158447,314.918793 1111.658203,311.623871 
	C1105.714111,306.028381 1100.053223,300.086212 1093.742798,294.940399 
	C1088.903320,290.994019 1087.714478,287.838440 1090.952637,282.275574 
	C1091.285645,281.703400 1091.624268,281.132843 1091.923706,280.542908 
	C1096.581299,271.363800 1100.611694,270.205658 1109.566162,275.480988 
	C1118.483521,268.918884 1125.287842,268.421112 1132.637451,275.392242 
	C1133.729980,273.770172 1135.635254,272.232330 1135.628418,270.702972 
	C1135.609863,266.546753 1137.953369,263.822479 1139.996704,260.675232 
	C1142.977417,256.083923 1140.248413,250.716217 1133.657837,246.864410 
	C1130.999878,245.310959 1128.162231,243.723190 1126.149536,241.483276 
	C1122.697388,237.641495 1118.582886,237.025803 1113.762085,236.513626 
	C1109.792847,236.091934 1105.927979,233.776184 1102.304932,231.777496 
	C1101.578125,231.376587 1101.658813,228.432083 1102.214355,226.985825 
	C1103.987427,222.370407 1102.584229,219.400162 1097.765137,219.956696 
	C1092.194336,220.600037 1088.187134,217.930527 1084.175537,215.169785 
	C1070.646240,205.859116 1056.242188,205.024323 1041.132812,210.289902 
	C1034.959961,212.441147 1028.852051,214.778641 1022.375000,217.241608 
z"/>
<path fill="#EB0104" opacity="1.000000" stroke="none" 
	d="
M976.177246,861.946411 
	C969.459412,860.267639 963.837952,862.512451 959.059326,867.773438 
	C958.718933,867.458191 958.378601,867.142883 958.038208,866.827576 
	C958.038208,859.636475 957.999268,852.445068 958.049805,845.254272 
	C958.095398,838.760376 957.952820,838.624207 951.344360,838.954590 
	C948.538025,839.094971 945.721313,839.029480 942.297852,838.793457 
	C941.339783,838.972534 940.993164,839.415710 940.646484,839.858887 
	C940.708923,843.013062 940.603455,846.182312 940.884888,849.316833 
	C941.125977,852.003113 939.967285,852.964478 936.842407,853.168701 
	C936.103943,854.926636 936.043457,856.460144 935.982910,857.993652 
	C935.795166,869.703125 935.607422,881.412598 934.879822,893.562012 
	C933.865173,894.011841 933.390320,894.021667 932.915527,894.031555 
	C929.725708,893.708374 928.955383,891.679016 929.027405,888.826233 
	C929.152344,883.879395 929.118225,878.928406 929.149353,873.979187 
	C929.175110,869.885681 928.611450,866.256775 923.864441,864.717834 
	C922.997192,864.436707 922.706543,862.377136 921.762085,860.699829 
	C917.721008,860.684021 919.902954,862.989197 919.970947,864.612427 
	C918.923828,869.489502 917.876648,874.366516 916.715149,879.776489 
	C913.131775,879.776489 909.045166,879.930298 904.976685,879.725952 
	C901.938660,879.573364 900.834717,880.699890 900.921753,883.712524 
	C901.069336,888.826843 900.942444,893.949219 900.592651,899.554321 
	C899.844971,900.335083 899.435547,900.629761 899.026123,900.924438 
	C895.282593,899.911743 893.903625,897.784363 893.894104,893.620605 
	C893.850098,874.388550 893.496094,855.153137 892.891724,835.930359 
	C892.791748,832.749634 891.095642,829.538391 889.773132,826.499756 
	C888.463928,823.491760 886.694092,820.684265 885.063721,817.088562 
	C885.006042,815.716736 885.010925,815.045105 885.015808,814.373535 
	C886.330627,814.249573 887.645447,814.017151 888.960266,814.017090 
	C971.996521,814.010437 1055.032715,814.022705 1138.534180,814.552490 
	C1139.347412,819.056763 1139.695312,823.041931 1140.043091,827.027039 
	C1140.069336,831.755432 1137.612549,835.103271 1134.320068,838.224548 
	C1133.115479,839.366394 1132.243164,841.498291 1132.249146,843.174866 
	C1132.292969,855.114624 1132.503418,867.056702 1132.895752,878.990234 
	C1132.999146,882.134033 1131.963257,883.835815 1129.078491,885.001343 
	C1124.376831,886.901062 1119.810669,889.136108 1114.661865,891.467529 
	C1114.661865,883.666687 1114.341309,876.634094 1114.793945,869.651489 
	C1115.027954,866.041199 1114.927368,862.881470 1111.172241,861.891479 
	C1105.520874,860.401489 1107.787964,855.671631 1106.313721,851.655273 
	C1106.006104,848.669128 1106.006104,846.379639 1106.006104,843.657715 
	C1104.144043,846.776611 1102.540527,849.462463 1100.936890,852.148254 
	C1099.977661,853.220215 1099.018311,854.292175 1097.590088,855.720764 
	C1096.703857,857.035339 1096.286621,857.993347 1095.869385,858.951294 
	C1095.530518,869.344849 1095.191528,879.738342 1094.551025,890.584045 
	C1094.030762,891.192322 1093.812012,891.348389 1093.593262,891.504517 
	C1093.957520,891.672363 1094.321899,891.840332 1094.686157,892.008240 
	C1094.686157,894.524780 1094.686157,897.041321 1094.686157,900.432068 
	C1092.767822,899.188049 1091.798828,898.559570 1090.201172,897.970825 
	C1089.222046,897.998901 1088.871582,897.987427 1088.520996,897.975891 
	C1088.355835,897.545105 1088.190552,897.114258 1088.224487,896.221802 
	C1088.280396,895.179749 1088.137207,894.599365 1087.994019,894.019043 
	C1087.154175,883.634827 1086.314453,873.250610 1085.421631,862.210449 
	C1081.121338,862.210449 1076.281982,862.210449 1070.850098,862.210449 
	C1070.850098,864.766907 1071.021484,867.391785 1070.805176,869.984375 
	C1070.554688,872.986511 1071.307861,875.744629 1068.576782,878.863037 
	C1066.538696,881.190308 1067.845703,886.446960 1067.643799,890.819214 
	C1063.850220,890.819214 1060.163208,890.819214 1056.531738,890.819214 
	C1055.838989,887.491272 1056.163086,883.208069 1054.181030,881.191895 
	C1052.249756,879.227295 1047.959229,879.581970 1044.125732,878.800354 
	C1044.125732,875.351807 1044.128662,871.568237 1044.124756,867.784668 
	C1044.119995,862.986511 1038.714233,856.623962 1034.097046,856.569336 
	C1030.361694,856.525024 1026.617554,857.232544 1021.950623,857.699341 
	C1021.950623,870.226440 1021.950623,882.652466 1021.657104,895.532410 
	C1021.363586,895.986328 1021.017212,895.993835 1021.017212,895.993835 
	C1017.107056,898.081238 1011.593445,897.797729 1010.143372,902.635437 
	C1008.050537,903.984192 1006.362488,905.072144 1004.269165,906.571777 
	C1003.314209,906.986145 1002.764526,906.988708 1002.214783,906.991333 
	C1001.168457,902.880127 1000.199463,898.746887 999.033142,894.669983 
	C998.636353,893.283081 997.692627,892.060791 997.089783,890.722351 
	C996.453430,889.309326 995.542725,887.878357 995.423340,886.400940 
	C995.088867,882.260254 995.100708,878.091614 995.253601,873.232483 
	C995.285950,870.690613 995.040588,868.850159 994.795288,867.009766 
	C993.214355,860.915710 991.633484,854.821655 990.033020,847.955383 
	C989.847961,845.949829 989.682434,844.716492 989.516907,843.483154 
	C989.133850,843.511963 988.750732,843.540710 988.367676,843.569458 
	C988.262024,844.760376 988.156372,845.951233 988.050781,847.142090 
	C986.399597,853.478394 984.748474,859.814758 982.643616,866.575562 
	C981.433716,867.010071 980.677551,867.020081 979.921448,867.030151 
	C979.359436,866.496521 978.797485,865.962891 978.124023,864.816895 
	C977.400757,863.451904 976.789001,862.699158 976.177246,861.946411 
M1104.912964,837.422607 
	C1104.810303,837.298157 1104.726440,837.142273 1104.595947,837.063965 
	C1104.538940,837.029785 1104.294800,837.147949 1104.290771,837.207336 
	C1104.209595,838.418884 1104.151001,839.631958 1104.087646,840.844727 
	C1104.388550,840.849792 1104.689331,840.854858 1104.990234,840.859924 
	C1104.990234,839.924011 1104.990234,838.988037 1104.912964,837.422607 
z"/>
<path fill="#FBFBFB" opacity="1.000000" stroke="none" 
	d="
M498.047852,628.989868 
	C517.082275,637.530457 533.368164,649.067322 545.149841,666.093933 
	C572.642151,705.825134 547.773438,760.476074 499.927368,766.022888 
	C482.775116,768.011292 466.109833,767.540039 450.372742,759.410889 
	C449.525635,758.973267 448.464020,758.956665 447.506683,758.725769 
	C440.043457,756.926331 436.116791,752.193298 436.204315,744.484863 
	C436.291168,736.832703 436.965363,729.185669 436.996246,721.534729 
	C437.121857,690.415527 437.082001,659.295532 437.141785,628.175964 
	C437.160583,618.398682 445.832458,609.770386 454.520416,611.159424 
	C457.729889,611.672485 460.824646,613.140259 463.866455,614.422363 
	C475.162384,619.183716 486.414459,624.049011 498.047852,628.989868 
M508.815521,737.582886 
	C523.546265,728.877930 530.450012,715.951477 529.274597,698.912109 
	C528.314941,685.000610 520.579590,674.529541 509.488373,667.563110 
	C496.927612,659.673584 483.144257,653.726624 469.863556,646.992065 
	C468.052795,646.073853 466.074402,645.486206 463.685974,644.555420 
	C463.685974,647.014282 463.685974,648.667969 463.685974,650.321594 
	C463.685974,677.479919 463.872314,704.640625 463.522888,731.794495 
	C463.456024,736.991760 465.588806,739.012634 469.849548,740.054626 
	C482.815002,743.225159 495.558105,742.128052 508.815521,737.582886 
z"/>
<path fill="#FBFBFB" opacity="1.000000" stroke="none" 
	d="
M728.524048,707.314636 
	C728.568909,690.358704 728.629883,673.872681 728.562866,657.387268 
	C728.522888,647.558655 728.151672,637.730652 728.164612,627.902710 
	C728.180481,615.799011 739.499268,607.907715 750.506409,612.720215 
	C769.176758,620.883179 788.146179,628.594727 806.011414,638.297607 
	C821.991577,646.976746 834.630737,659.991699 842.289612,677.017517 
	C859.605774,715.511780 833.196167,761.306885 791.231689,766.016479 
	C773.903137,767.961243 757.049866,767.634827 741.177063,759.286072 
	C740.477417,758.918030 739.570557,758.956543 738.769409,758.766907 
	C730.967651,756.920410 727.037537,752.251099 727.207642,744.237610 
	C727.465698,732.083130 728.044067,719.935425 728.524048,707.314636 
M816.096985,684.601501 
	C812.075439,679.763794 808.561523,674.363037 803.937256,670.193787 
	C789.961121,657.592590 772.143616,652.141724 754.685974,644.317871 
	C754.685974,646.894531 754.685974,648.667419 754.685974,650.440369 
	C754.685974,675.267517 754.685974,700.094604 754.685974,724.921753 
	C754.685974,739.810852 754.647522,740.285889 769.797791,741.512329 
	C781.242371,742.438904 793.005066,742.196289 803.101746,735.586182 
	C819.600586,724.784851 825.022888,703.452209 816.096985,684.601501 
z"/>
<path fill="#FCFCFC" opacity="1.000000" stroke="none" 
	d="
M902.477051,739.546692 
	C926.789673,739.042725 951.101318,738.471313 975.416016,738.105286 
	C979.195068,738.048401 983.095459,738.516724 986.751892,739.465942 
	C993.746521,741.281738 996.724243,745.742310 995.936890,752.196045 
	C995.288757,757.508667 990.118652,761.837097 983.765320,761.931824 
	C976.436218,762.041199 969.100037,761.654297 961.770447,761.751465 
	C934.777649,762.109070 907.787354,762.664246 880.794067,762.968872 
	C867.009521,763.124451 861.423401,754.676331 867.032593,741.939819 
	C869.150513,737.130798 872.089661,732.562805 875.291870,728.372009 
	C893.384644,704.693848 911.561829,681.077820 929.968811,657.643677 
	C934.553589,651.806824 940.093445,646.720215 945.713013,640.736328 
	C943.309021,640.736328 941.469360,640.729797 939.629700,640.737305 
	C919.630981,640.819153 899.632263,640.967529 879.633667,640.950256 
	C873.007507,640.944519 867.707581,636.296875 867.057068,630.419556 
	C866.208130,622.749146 868.971558,617.359863 876.298523,616.277832 
	C884.604309,615.051147 893.174438,615.347412 901.625122,615.432678 
	C913.931396,615.556763 926.231812,616.171387 938.537964,616.416626 
	C953.334839,616.711548 968.136292,616.784790 982.932495,617.103516 
	C984.856445,617.144958 986.832092,617.898193 988.662842,618.626038 
	C997.118347,621.987671 999.329956,628.823608 993.885315,636.121704 
	C991.345520,639.526184 988.164612,642.882202 984.532959,644.971680 
	C963.024597,657.345764 947.714844,675.942261 933.166687,695.318115 
	C922.573425,709.426880 912.238159,723.729431 901.474854,738.453674 
	C901.600281,739.156738 902.038635,739.351746 902.477051,739.546692 
z"/>
<path fill="#FCFCFC" opacity="1.000000" stroke="none" 
	d="
M1442.116577,623.030090 
	C1447.477661,615.581116 1457.139038,619.335754 1459.746460,625.831970 
	C1462.128174,631.765808 1463.386108,638.188232 1464.778442,644.475220 
	C1470.583374,670.687439 1476.064087,696.973083 1482.102417,723.130615 
	C1483.616089,729.687439 1487.159546,735.755310 1488.994019,742.266663 
	C1489.972412,745.739685 1490.231445,749.976990 1489.165039,753.347229 
	C1486.984741,760.238586 1475.608154,765.186890 1469.054321,756.470764 
	C1461.405396,746.297974 1457.811279,734.398804 1454.158813,722.501465 
	C1453.776123,721.254883 1453.400879,720.005920 1452.888062,718.316650 
	C1438.729736,719.818359 1424.722412,721.216919 1410.750854,722.911133 
	C1409.235229,723.094910 1407.372925,724.695557 1406.613037,726.135742 
	C1401.890137,735.088440 1397.615601,744.279297 1392.828247,753.195740 
	C1389.740356,758.947327 1384.433960,761.227783 1378.020630,759.815979 
	C1372.840698,758.675781 1368.741577,755.709106 1367.807861,750.159241 
	C1367.395508,747.708191 1367.808105,744.825562 1368.739502,742.495972 
	C1371.567383,735.422668 1374.823364,728.520081 1377.928833,721.558228 
	C1379.438477,718.173767 1381.198486,715.132874 1380.392578,710.874573 
	C1380.026123,708.938538 1382.692627,705.313599 1384.859375,704.265076 
	C1388.416138,702.543945 1390.406372,700.045593 1392.449341,696.917725 
	C1407.618408,673.692871 1422.961060,650.581299 1438.293213,627.463379 
	C1439.297241,625.949524 1440.664307,624.676575 1442.116577,623.030090 
M1439.207397,668.849426 
	C1433.652466,678.427856 1428.097534,688.006226 1422.182617,698.205261 
	C1431.057007,697.374939 1439.097534,696.622681 1447.609985,695.826233 
	C1445.630615,685.647705 1443.704834,675.744141 1441.624390,665.045349 
	C1440.628906,666.639160 1440.117676,667.457825 1439.207397,668.849426 
z"/>
<path fill="#E50104" opacity="1.000000" stroke="none" 
	d="
M884.552917,814.281860 
	C885.010925,815.045105 885.006042,815.716736 884.990967,816.724243 
	C883.369385,821.770691 881.398682,826.157776 877.104675,829.249451 
	C876.180420,829.914917 876.186890,832.237366 876.205261,833.791321 
	C876.385681,849.096802 876.662048,864.401123 876.902588,879.705933 
	C876.930664,881.492432 876.906311,883.279724 876.906311,885.336182 
	C873.184265,885.540100 869.943054,885.717712 866.182129,885.923767 
	C866.182129,892.257080 866.182129,898.271179 866.182129,904.794983 
	C864.045044,904.043762 862.560669,903.521973 859.945312,902.602661 
	C859.437195,889.126160 858.491394,875.476562 858.616760,861.836853 
	C858.668274,856.239258 858.338928,852.452698 852.423035,850.159546 
	C850.971375,849.596863 851.012390,845.183289 850.294922,842.243774 
	C848.196899,842.343872 845.890259,842.453979 843.583618,842.564026 
	C843.092468,842.408997 842.601318,842.253906 842.110107,842.098816 
	C841.632996,847.325623 841.047913,852.545288 840.701294,857.780701 
	C839.973389,868.773621 839.370850,879.774841 838.636902,892.119507 
	C837.008118,890.191650 836.186951,889.219788 835.209717,888.063110 
	C834.587769,888.571045 833.895630,889.136292 832.021179,890.667175 
	C831.167725,877.440125 830.373962,865.138611 829.534973,852.135559 
	C825.220032,851.946167 820.492188,851.738586 814.866394,851.491638 
	C814.866394,854.296997 815.094360,856.727600 814.811279,859.097168 
	C814.417908,862.389404 815.760254,865.578064 812.541870,869.006165 
	C810.558411,871.118835 812.174500,876.610901 812.174500,881.013977 
	C807.940430,881.013977 804.222351,881.013977 800.467957,881.013977 
	C799.879456,877.798767 800.315369,873.482971 798.367249,871.434204 
	C796.445374,869.413025 792.110901,869.685974 788.110229,868.790283 
	C788.110229,865.135559 788.120911,861.031250 788.107483,856.927063 
	C788.092163,852.249023 782.019043,846.603271 777.267517,846.831787 
	C766.647522,847.342590 766.663208,847.342957 766.475220,857.986877 
	C766.429260,860.589111 766.242920,863.188843 766.084595,866.568604 
	C741.175903,851.628174 719.245911,834.303406 698.188904,814.226868 
	C700.084595,814.114929 701.143799,813.997864 702.203064,813.997681 
	C761.670471,813.989136 821.137817,813.989197 880.605225,813.998840 
	C881.766846,813.999023 882.928406,814.123657 884.552917,814.281860 
z"/>
<path fill="#FCFCFC" opacity="1.000000" stroke="none" 
	d="
M698.607788,628.329834 
	C678.414062,665.775757 667.644592,706.648499 650.836975,745.047546 
	C648.839417,749.611206 646.444031,754.003601 644.165588,758.440674 
	C641.265320,764.088806 636.677002,766.534241 630.281799,766.023926 
	C624.220825,765.540222 620.238220,762.216187 618.312439,756.901672 
	C612.552795,741.007507 606.680664,725.127563 601.729248,708.973328 
	C594.348755,684.894226 587.698853,660.590820 580.801636,636.364746 
	C580.215576,634.306335 580.035095,632.120178 579.790405,629.979065 
	C578.927490,622.429199 583.079407,616.402466 589.957947,615.135437 
	C597.851868,613.681335 603.802795,617.150330 606.023865,624.965637 
	C609.784546,638.198792 613.180359,651.535645 616.939758,664.769165 
	C621.862122,682.096191 626.988770,699.365173 633.153870,716.787231 
	C636.153381,709.143494 639.237732,701.531677 642.135254,693.849426 
	C648.806580,676.161682 655.039062,658.298035 662.161987,640.795654 
	C665.379944,632.888611 669.827271,625.358582 674.592590,618.244019 
	C678.329895,612.664246 684.439331,611.529114 690.132690,613.770935 
	C696.189087,616.155701 698.981934,620.762451 698.607788,628.329834 
z"/>
<path fill="#FCFCFC" opacity="1.000000" stroke="none" 
	d="
M1044.067627,728.925781 
	C1044.297974,700.129089 1044.529785,671.822266 1044.765869,643.003723 
	C1039.192627,643.003723 1032.587891,643.037720 1025.983643,642.994934 
	C1018.224731,642.944641 1012.734131,638.374695 1012.129822,631.546265 
	C1011.501465,624.446411 1015.721741,619.380066 1023.620667,617.767944 
	C1024.596802,617.568726 1025.581055,617.298035 1026.566895,617.273621 
	C1051.555542,616.653809 1076.533936,616.521790 1101.364746,620.018494 
	C1109.416870,621.152344 1113.368774,626.205505 1112.877319,634.131836 
	C1112.451172,641.006104 1106.901978,646.108643 1099.351196,645.937683 
	C1090.716064,645.742249 1082.091919,645.067078 1072.228394,644.533569 
	C1072.228394,673.804932 1072.228394,703.131897 1072.228394,732.401672 
	C1078.746460,732.401672 1086.178101,732.294678 1093.603760,732.456726 
	C1096.391602,732.517578 1099.328125,732.756592 1101.912231,733.696838 
	C1107.334229,735.669495 1110.670532,741.966675 1109.671875,747.374023 
	C1108.552124,753.435913 1103.710327,757.727661 1097.558228,757.969604 
	C1091.564575,758.205444 1085.562866,758.244995 1079.571045,758.512817 
	C1061.951416,759.300415 1044.339600,760.283264 1026.714966,760.922485 
	C1020.493591,761.148071 1015.457764,756.664490 1014.282837,750.762634 
	C1013.234192,745.495056 1016.240417,739.565430 1021.425293,737.194763 
	C1023.030579,736.460754 1024.921143,736.247986 1026.709473,736.040955 
	C1029.520142,735.715393 1032.353638,735.581848 1035.179321,735.395569 
	C1037.979614,735.211060 1040.782104,735.061768 1044.069092,734.868530 
	C1044.069092,732.961426 1044.069092,731.188599 1044.067627,728.925781 
z"/>
<path fill="#FCFCFC" opacity="1.000000" stroke="none" 
	d="
M1161.699707,635.027954 
	C1160.562744,670.086670 1159.427734,704.650757 1158.256104,740.329041 
	C1168.467285,738.791931 1179.087402,737.482056 1189.585327,735.518921 
	C1197.551880,734.029114 1205.378418,731.767273 1213.239136,729.740295 
	C1221.984009,727.485413 1228.519287,730.500061 1230.911377,738.033752 
	C1233.266235,745.450317 1230.205933,752.268066 1221.702759,754.656677 
	C1208.491577,758.367554 1195.039307,761.460815 1181.504639,763.699280 
	C1171.389893,765.372192 1160.988525,765.761719 1150.706421,765.862610 
	C1136.787354,765.999390 1130.086914,757.255554 1130.720947,743.280518 
	C1132.479248,704.532166 1133.671997,665.757690 1134.975952,626.989685 
	C1135.286011,617.768127 1140.260376,612.680481 1149.250244,613.015686 
	C1156.089600,613.270691 1161.083740,618.215637 1161.651245,625.542236 
	C1161.882080,628.522705 1161.697388,631.535339 1161.699707,635.027954 
z"/>
<path fill="#FCFCFC" opacity="1.000000" stroke="none" 
	d="
M1277.845459,679.974731 
	C1276.773926,700.041260 1275.710571,719.612732 1274.579590,740.427307 
	C1285.457031,738.792175 1296.075439,737.485413 1306.571655,735.523865 
	C1314.538330,734.034973 1322.364624,731.772705 1330.225220,729.744751 
	C1338.985718,727.484558 1345.507812,730.483521 1347.908936,738.019287 
	C1350.271362,745.433228 1347.213013,752.264465 1338.716797,754.652161 
	C1325.506348,758.364746 1312.054077,761.458801 1298.519531,763.698242 
	C1288.404907,765.371765 1278.003540,765.760986 1267.721313,765.863037 
	C1253.793945,766.001465 1247.084473,757.259277 1247.718506,743.295410 
	C1249.478149,704.547302 1250.673340,665.773010 1251.974976,627.005066 
	C1252.290283,617.615601 1257.487915,612.477844 1266.734253,613.028137 
	C1273.887695,613.453857 1278.766724,619.138428 1278.686157,627.521484 
	C1278.519775,644.841919 1278.143677,662.160339 1277.845459,679.974731 
z"/>
<path fill="#E80104" opacity="1.000000" stroke="none" 
	d="
M1140.349365,827.216187 
	C1139.695312,823.041931 1139.347412,819.056763 1138.998047,814.622192 
	C1169.272583,814.172729 1199.548584,814.172729 1230.798218,814.172729 
	C1206.034180,838.011902 1179.442749,857.833008 1149.021606,874.662598 
	C1149.021606,864.939453 1148.830200,856.204590 1149.094604,847.483521 
	C1149.249023,842.387085 1147.729614,838.564758 1143.890381,835.054810 
	C1142.033203,833.356995 1141.686157,830.007263 1140.349365,827.216187 
z"/>
<path fill="#D90204" opacity="1.000000" stroke="none" 
	d="
M1083.790039,229.237549 
	C1084.773071,230.650162 1085.458618,231.831802 1086.865479,234.256989 
	C1078.973999,232.611450 1072.366821,237.517807 1065.720703,232.903641 
	C1063.012939,231.023651 1062.080200,229.723389 1064.754639,227.245026 
	C1068.132446,224.114883 1071.839355,223.119324 1076.102417,225.216690 
	C1078.586182,226.438721 1081.030518,227.740616 1083.790039,229.237549 
z"/>
<path fill="#E50104" opacity="1.000000" stroke="none" 
	d="
M1101.123047,852.443481 
	C1102.540527,849.462463 1104.144043,846.776611 1106.006104,843.657715 
	C1106.006104,846.379639 1106.006104,848.669128 1106.006226,851.381226 
	C1104.440674,852.115479 1102.875000,852.427063 1101.123047,852.443481 
z"/>
<path fill="#E50104" opacity="1.000000" stroke="none" 
	d="
M932.969238,894.436340 
	C933.390320,894.021667 933.865173,894.011841 934.696289,894.001953 
	C934.930359,895.840515 934.808105,897.679016 934.685791,899.517456 
	C934.262451,899.527954 933.839172,899.538391 933.415833,899.548889 
	C933.284912,897.979614 933.153992,896.410400 932.969238,894.436340 
z"/>
<path fill="#E50104" opacity="1.000000" stroke="none" 
	d="
M994.642761,867.374878 
	C995.040588,868.850159 995.285950,870.690613 995.264526,872.765930 
	C994.828552,871.247253 994.659424,869.493591 994.642761,867.374878 
z"/>
<path fill="#E50104" opacity="1.000000" stroke="none" 
	d="
M988.322632,847.153076 
	C988.156372,845.951233 988.262024,844.760376 988.367676,843.569458 
	C988.750732,843.540710 989.133850,843.511963 989.516907,843.483154 
	C989.682434,844.716492 989.847961,845.949829 990.012939,847.574341 
	C989.539856,847.698425 989.067200,847.431213 988.322632,847.153076 
z"/>
<path fill="#E50104" opacity="1.000000" stroke="none" 
	d="
M936.153931,857.679138 
	C936.043457,856.460144 936.103943,854.926636 936.412231,853.187317 
	C936.548279,854.442566 936.436523,855.903564 936.153931,857.679138 
z"/>
<path fill="#E50104" opacity="1.000000" stroke="none" 
	d="
M920.248413,864.430786 
	C919.902954,862.989197 917.721008,860.684021 921.597961,860.402466 
	C921.389648,861.778870 920.957825,863.013977 920.248413,864.430786 
z"/>
<path fill="#E50104" opacity="1.000000" stroke="none" 
	d="
M1096.129150,858.779053 
	C1096.286621,857.993347 1096.703857,857.035339 1097.417725,856.035156 
	C1097.272461,856.864136 1096.830688,857.735474 1096.129150,858.779053 
z"/>
<path fill="#E50104" opacity="1.000000" stroke="none" 
	d="
M980.039978,867.349365 
	C980.677551,867.020081 981.433716,867.010071 982.567749,866.999207 
	C982.945679,867.895996 982.945679,868.793579 982.945679,869.691162 
	C982.553101,869.979675 982.160583,870.268127 981.768005,870.556641 
	C981.231506,869.593933 980.695007,868.631226 980.039978,867.349365 
z"/>
<path fill="#E50104" opacity="1.000000" stroke="none" 
	d="
M1002.224731,907.299744 
	C1002.764526,906.988708 1003.314209,906.986145 1004.136841,906.977539 
	C1004.349854,907.523132 1004.289978,908.074646 1004.230164,908.626221 
	C1003.565002,908.286865 1002.899902,907.947510 1002.224731,907.299744 
z"/>
<path fill="#E50104" opacity="1.000000" stroke="none" 
	d="
M976.284912,862.230591 
	C976.789001,862.699158 977.400757,863.451904 978.028198,864.536743 
	C977.493469,864.084167 976.943054,863.299438 976.284912,862.230591 
z"/>
<path fill="#E50104" opacity="1.000000" stroke="none" 
	d="
M940.895142,839.747986 
	C940.993164,839.415710 941.339783,838.972534 941.830994,838.734375 
	C941.698303,839.171997 941.421021,839.404541 940.895142,839.747986 
z"/>
<path fill="#E50104" opacity="1.000000" stroke="none" 
	d="
M1087.838623,894.249634 
	C1088.137207,894.599365 1088.280396,895.179749 1088.227783,895.873901 
	C1087.915649,895.485168 1087.799438,894.982666 1087.838623,894.249634 
z"/>
<path fill="#E50104" opacity="1.000000" stroke="none" 
	d="
M1088.450684,898.286133 
	C1088.871582,897.987427 1089.222046,897.998901 1089.835938,898.023743 
	C1089.916382,898.630371 1089.733765,899.223694 1089.551025,899.817017 
	C1089.160889,899.410095 1088.770630,899.003235 1088.450684,898.286133 
z"/>
<path fill="#E50104" opacity="1.000000" stroke="none" 
	d="
M899.206543,901.097290 
	C899.435547,900.629761 899.844971,900.335083 900.518127,900.016846 
	C900.316833,900.418945 899.851868,900.844604 899.206543,901.097290 
z"/>
<path fill="#E50104" opacity="1.000000" stroke="none" 
	d="
M1094.751221,891.753906 
	C1094.321899,891.840332 1093.957520,891.672363 1093.593262,891.504517 
	C1093.812012,891.348389 1094.030762,891.192322 1094.466309,891.013977 
	C1094.727539,891.161072 1094.771973,891.330383 1094.751221,891.753906 
z"/>
<path fill="#E50104" opacity="1.000000" stroke="none" 
	d="
M1021.050598,896.227661 
	C1021.017212,895.993835 1021.363586,895.986328 1021.536743,895.987305 
	C1021.501282,896.146057 1021.292603,896.303772 1021.050598,896.227661 
z"/>
<path fill="#E50104" opacity="1.000000" stroke="none" 
	d="
M1104.951660,837.737366 
	C1104.990234,838.988037 1104.990234,839.924011 1104.990234,840.859924 
	C1104.689331,840.854858 1104.388550,840.849792 1104.087646,840.844727 
	C1104.151001,839.631958 1104.209595,838.418884 1104.290771,837.207336 
	C1104.294800,837.147949 1104.538940,837.029785 1104.595947,837.063965 
	C1104.726440,837.142273 1104.810303,837.298157 1104.951660,837.737366 
z"/>
<path fill="#010101" opacity="1.000000" stroke="none" 
	d="
M508.466461,737.744629 
	C495.558105,742.128052 482.815002,743.225159 469.849548,740.054626 
	C465.588806,739.012634 463.456024,736.991760 463.522888,731.794495 
	C463.872314,704.640625 463.685974,677.479919 463.685974,650.321594 
	C463.685974,648.667969 463.685974,647.014282 463.685974,644.555420 
	C466.074402,645.486206 468.052795,646.073853 469.863556,646.992065 
	C483.144257,653.726624 496.927612,659.673584 509.488373,667.563110 
	C520.579590,674.529541 528.314941,685.000610 529.274597,698.912109 
	C530.450012,715.951477 523.546265,728.877930 508.466461,737.744629 
z"/>
<path fill="#010101" opacity="1.000000" stroke="none" 
	d="
M816.249390,684.946167 
	C825.022888,703.452209 819.600586,724.784851 803.101746,735.586182 
	C793.005066,742.196289 781.242371,742.438904 769.797791,741.512329 
	C754.647522,740.285889 754.685974,739.810852 754.685974,724.921753 
	C754.685974,700.094604 754.685974,675.267517 754.685974,650.440369 
	C754.685974,648.667419 754.685974,646.894531 754.685974,644.317871 
	C772.143616,652.141724 789.961121,657.592590 803.937256,670.193787 
	C808.561523,674.363037 812.075439,679.763794 816.249390,684.946167 
z"/>
<path fill="#010000" opacity="1.000000" stroke="none" 
	d="
M902.260132,739.302490 
	C902.038635,739.351746 901.600281,739.156738 901.372192,738.778442 
	C901.736084,738.749451 901.889648,738.903870 902.260132,739.302490 
z"/>
<path fill="#050505" opacity="1.000000" stroke="none" 
	d="
M1439.406982,668.562927 
	C1440.117676,667.457825 1440.628906,666.639160 1441.624390,665.045349 
	C1443.704834,675.744141 1445.630615,685.647705 1447.609985,695.826233 
	C1439.097534,696.622681 1431.057007,697.374939 1422.182617,698.205261 
	C1428.097534,688.006226 1433.652466,678.427856 1439.406982,668.562927 
z"/>
</svg>