<svg xmlns="http://www.w3.org/2000/svg" viewBox="0 0 400 225.225"><g fill-rule="evenodd"><path fill="#e80404" d="M195.885 27.19c.399.049 1.109.05 1.576.001.467-.048.14-.089-.727-.09-.867-.001-1.249.039-.849.089m8.113 0c.402.05 1.061.05 1.464 0 .402-.05.073-.091-.732-.091-.805 0-1.135.041-.732.091m-11.712.446c.279.054.735.054 1.014 0 .278-.053.05-.097-.507-.097-.558 0-.786.044-.507.097m15.991 0c.279.054.735.054 1.014 0 .278-.053.05-.097-.507-.097-.558 0-.786.044-.507.097m-19.088.292c-.446.143-.469.18-.112.18.247 0 .703-.081 1.013-.18.446-.143.469-.18.113-.18-.248 0-.704.081-1.014.18m4.167 5.409c-.496.108-1.357.201-1.915.207-1.01.012-3.555.408-6.756 1.052-3.616.728-3.753.761-7.32 1.775-3.487.99-13.103 5.083-14.302 6.087-.186.156-.879.555-1.541.887-1.824.914-6.591 3.907-7.355 4.618-.372.346-1.487 1.217-2.478 1.937-4.147 3.011-10.461 9.327-13.498 13.501-.721.991-1.59 2.106-1.931 2.477-.72.786-3.002 4.39-4.286 6.771-.489.907-1.15 2.033-1.468 2.503-.319.47-.718 1.16-.887 1.534a127.896 127.896 0 0 0-2.593 6.084c-.098.248-.553 1.352-1.011 2.453-.457 1.101-.963 2.469-1.123 3.04-.161.571-.469 1.647-.684 2.39a33.889 33.889 0 0 0-.569 2.252 88.636 88.636 0 0 1-.551 2.478c-.359 1.523-.458 2.101-.978 5.743-.607 4.246-.714 5.891-.714 10.967 0 4.74.045 5.444.357 5.563.196.075 6.068.137 13.05.137h12.694l.351-.501c.622-.888.432-1.629-.795-3.104-1.268-1.523-1.283-1.784-.139-2.327.858-.407 1.059-.741 1.059-1.759 0-1.458.818-1.998 1.485-.98 1.512 2.307 3.458-1.655 3.817-7.771.175-2.981.004-3.325-1.458-2.932-1.309.353-1.527.089-.934-1.137.865-1.79.289-2.359-2.168-2.14-4.378.389-4.521.301-2.674-1.635 1.62-1.699 1.6-1.919-.32-3.626-2.477-2.202-2.336-2.984.675-3.741.806-.202 1.62-.447 1.81-.545.189-.098.67-.249 1.067-.336.888-.195 1.707-1.166 1.523-1.805-.209-.728-.742-2.679-.829-3.035-.137-.558.639-.515 1.537.085l1.726 1.156c1.007.675 1.332.608 1.948-.402.788-1.293.534-1.84-1.81-3.902-1.522-1.34-1.524-1.376-.06-1.82 2.684-.814 3.022-3.556.547-4.446-.634-.228-1.152-.497-1.152-.599 0-.461 1.799-2.023 2.331-2.023 1.358 0 1.599-1.107.597-2.737-1.133-1.84-1.03-1.992 1.343-1.992 2.477 0 2.515-.047 2.697-3.266.169-3.007.275-2.942 2.588 1.577 1.412 2.758 1.86 1.899 1.999-3.829l.044-1.802 1.126.04c.619.022 1.509.166 1.977.32 1.125.369 1.279.178 1.444-1.791.121-1.435.531-2.595.809-2.285.056.062.351.568.656 1.126.934 1.704 2.413 2.092 2.621.687.06-.405.172-.474.563-.35 3.976 1.259 5.103 1.443 5.47.89.907-1.365.881-1.349 1.515-.933.93.61 1.381.461 2.58-.851 1.189-1.301 1.217-1.301 1.848-.044.26.518.438.621.948.546.52-.077.706.038 1.071.657.597 1.011 1.467 1.048 1.663.071.093-.464.332-.756.76-.925 1.109-.438 1.28-.566 1.649-1.232.5-.902 1.037-.963 1.218-.138.079.362.387.786.684.945.297.159.854.68 1.238 1.159.821 1.021 1.795 1.154 3.282.448 1.611-.764 2.449-1.129 3.702-1.613 2.51-.97 3.247-1.517 4.719-3.505 1.65-2.227 3.317-3.358 6.648-4.512 1.119-.388 2.642-.924 3.385-1.191 3.734-1.342 7.047-1.043 10.16.917 1.016.639 1.617.866 2.297.866 1.12 0 1.456.434 1.108 1.432-.312.894.814 1.946 2.082 1.946 1.703 0 2.532.462 5.09 2.842 1.146 1.065 1.219 1.5.435 2.564-.31.419-.567.971-.571 1.226-.016 1.079-.572 1.388-1.529.85-1.002-.563-2.857-.424-3.626.273-.388.35-.482.355-.956.05-.3-.192-.865-.303-1.314-.257-.434.045-.857.087-.941.095-.159.015-1.153 2.038-1.401 2.851-.159.522.592 1.668 1.093 1.668.161 0 1.404 1.14 2.762 2.534 1.357 1.394 2.62 2.65 2.807 2.791.443.337.277 1.504-.287 2.014-.617.558-2.45.672-3.787.234-.616-.201-1.282-.366-1.482-.366-.379 0-1.722-.625-1.917-.893-.994-1.363-2.493-1.561-3.665-.483-.556.512-1.374.991-1.966 1.152-2.317.632-3.106 1.423-3.48 3.49-.09.496-.243 1.002-.34 1.126-.098.124-.232.53-.298.901-.067.372-.384 1.633-.704 2.804-.897 3.272-.886 3.314 1.525 5.801 1.782 1.841 1.779 1.831 1.973 4.561l.169 2.357.972.91c1.015.95 2.955 2.374 3.234 2.374.235 0 1.885 1.609 2.193 2.139.144.248.316 1.464.381 2.703l.119 2.252.626.072c.345.04 1.144-.1 1.777-.31.821-.273 1.478-.338 2.301-.23l3.217.423c1.137.149 2.142.346 2.234.439.245.248 1.394.206 1.556-.056.077-.124.387-.225.689-.225 1.206 0 2.802-2.157 2.802-3.786 0-.258.228-.732.507-1.053l.507-.585.935.455c.924.448.954.448 2.253.035.724-.231 1.57-.478 1.879-.549.31-.071.665-.361.789-.645.123-.284.714-.75 1.311-1.035.598-.286 1.565-1.02 2.149-1.633.792-.83 1.228-1.114 1.709-1.114.356 0 1.084-.256 1.618-.569 1.133-.664 1.895-.58 2.452.271.43.656.296 1.199-.298 1.199-.473 0-1.08.952-.847 1.33.196.317.776.312 2.007-.017 1.33-.356 4.16 1.796 2.905 2.209-.216.071-.713.271-1.104.443-.39.173-1.282.314-1.981.314-1.89 0-3.047.741-2.674 1.714.142.369.649.364 3.563-.034.998-.136 2.365.514 2.365 1.124 0 .438-.702.8-1.551.8-1.648 0-3.705.769-4.952 1.852-.418.363-.998.769-1.29.902-.292.133-.588.422-.658.642-.525 1.654-2.822 2.93-5.513 3.063-2.17.108-4.229.872-6.336 2.351-1.143.803-6.184 3.307-8.303 4.125-1.177.454-2.409.973-2.738 1.152-1.353.74-4.612.445-6.356-.574-1.581-.924-2.041-1.045-2.602-.69-.613.388-3.962-1.393-6.026-3.205-1.249-1.097-1.723-.768-4.463 3.096-1.576 2.222-2.457 3.225-3.203 3.642l-.726.406-.674-.645c-1.112-1.065-2.001.969-1.132 2.591.246.461 74.44.708 75.16.25.716-.454.528-10.623-.28-15.13-.167-.929-.469-2.652-.672-3.828-.886-5.143-2.294-10.356-4.015-14.865-.519-1.359-.956-2.324-3.362-7.424-1.212-2.572-6.067-10.348-7.362-11.794-.574-.641-1.306-1.571-1.627-2.066-1.817-2.804-9.643-10.405-13.761-13.365a184.003 184.003 0 0 1-2.998-2.213c-.845-.64-1.949-1.376-2.452-1.635-.503-.258-2.029-1.13-3.392-1.936-2.506-1.484-6.902-3.711-7.322-3.711-.126 0-.405-.097-.62-.215-.399-.219-1.268-.581-2.868-1.197a168.33 168.33 0 0 1-2.119-.84c-1.446-.587-2.989-1.095-4.075-1.344a68.227 68.227 0 0 1-2.14-.55c-.743-.204-2.415-.573-3.716-.821-1.301-.248-2.872-.549-3.491-.67-3.533-.69-17.976-1.165-20.27-.666m59 11.308c.377.337.774.616.884.619.109.004-.093-.215-.451-.485-.998-.753-1.191-.814-.433-.134m-105.509 1.554c-.785.688-.785.689-.063.208.399-.265.785-.579.858-.697.217-.351.037-.241-.795.489m75.516.54c-1.246.523-1.245 1.483.001 1.895.86.283 3.346.026 3.474-.359.278-.835-2.366-2.003-3.475-1.536m33.605.784c.611.619 1.16 1.126 1.222 1.126.062 0-.386-.507-.996-1.126-.61-.62-1.16-1.127-1.222-1.127-.062 0 .386.507.996 1.127m-111.605.844-1.458 1.52 1.521-1.457c1.412-1.354 1.623-1.583 1.457-1.583-.034 0-.719.684-1.52 1.52m-2.594 2.365-.891.957.958-.89c.526-.49.957-.921.957-.957 0-.171-.196 0-1.024.89m118.582.676c.933.994 1.135 1.173 1.135 1.004 0-.036-.481-.518-1.069-1.07l-1.07-1.004 1.004 1.07m-121.51 2.252-.891.957.958-.89c.89-.828 1.06-1.024.89-1.024-.037 0-.468.43-.957.957m123.659.169c.61.619 1.16 1.126 1.222 1.126.062 0-.387-.507-.997-1.126-.61-.62-1.16-1.126-1.222-1.126-.062 0 .387.506.997 1.126m-125.796 2.196-1.231 1.295 1.295-1.231c.712-.677 1.295-1.26 1.295-1.295 0-.167-.215.028-1.359 1.231m127.936-.057c.42.434.814.789.876.789.062 0-.231-.355-.651-.789-.42-.433-.815-.788-.877-.788-.062 0 .231.355.652.788m1.351 1.69c.265.371.532.675.594.675.062 0-.104-.304-.369-.675-.264-.372-.532-.676-.594-.676-.061 0 .104.304.369.676m15.098 26.381c-.004.079.14.485.321.901.181.417.33.606.33.42.001-.324-.635-1.614-.651-1.321m-164.973 17.212c-.085.452-.109.867-.054.922.055.055.17-.27.254-.722.085-.452.109-.866.054-.921-.055-.056-.169.269-.254.721m-.289 3.254c0 .557.044.785.098.506a3.247 3.247 0 0 0 0-1.013c-.054-.279-.098-.051-.098.507m170.064 3.265c-.001 1.115.037 1.6.084 1.077.048-.523.048-1.435.002-2.027-.047-.592-.086-.165-.086.95m-170.502.676c.001.867.042 1.194.091.727a8.462 8.462 0 0 0-.002-1.577c-.05-.399-.09-.017-.089.85m-.004 7.883c.001.743.043 1.02.094.615a5.967 5.967 0 0 0-.003-1.351c-.051-.339-.092-.007-.091.736m170.515.225.023 1.126 16.498.002 16.498.003-16.429-.06-16.429-.06-.092-1.069-.092-1.068.023 1.126m-195.528 1.182c4.552.034 12.001.034 16.554 0 4.552-.034.827-.062-8.277-.062-9.105 0-12.83.028-8.277.062m228.944 25.698c.054 23.885.033 25.616-.325 25.879-.211.155-.283.282-.16.282.757 0 .764-.216.764-26.046 0-14.027-.076-25.551-.169-25.609-.093-.057-.143 11.415-.11 25.494m-173.567 26.555c.17.217.512.54.76.719.248.178 1.16.997 2.027 1.82 2.904 2.755 9.984 7.802 10.608 7.562.229-.088.315-.555.315-1.712 0-1.825.088-1.912 1.915-1.913 1.954-.002 2.556.63 2.637 2.767l.066 1.736.827.069c1.009.084 1.279.383 1.494 1.653.337 1.988 2.521 1.46 2.521-.61 0-.659.101-1.26.225-1.337.124-.076.227-.665.228-1.308.006-2.159.084-2.258 1.654-2.115 1.85.167 1.906.277 1.924 3.779.018 3.606.098 3.963.911 4.082l.626.092.143-2.152a78.84 78.84 0 0 0 .144-4.218c.001-2.658.391-3.498 1.577-3.403.694.055.797.145.859.739.046.451.314.858.806 1.227l.737.552-.018 3.502c-.022 4.161.216 6.154.796 6.68.539.488.621.261.701-1.939l.061-1.689 1.068-.069c1.348-.086 1.371-.166 1.112-3.985-.331-4.879-.131-7.513.633-8.333.345-.372.699-.911.786-1.199.157-.521.16-.52.532.148.205.369.576.955.824 1.301.416.582.461 1.119.594 7.171.079 3.599.155 6.716.169 6.928.038.575.958 1.362 1.251 1.07.131-.131.289-1.119.351-2.198l.112-1.96 1.577-.113 1.576-.112.067-1.406c.076-1.596.468-2.031 1.482-1.646.866.33 1.041.912 1.041 3.463 0 1.886.068 2.382.338 2.485.186.072.345.311.354.531.014.352.04.345.209-.049.107-.248.202-1.768.212-3.378.024-3.969.192-5.248.71-5.412.327-.104.422-.41.476-1.526l.066-1.396 1.746-.065 1.745-.066.004 2.656c.004 3.184.117 3.467 1.064 2.67.998-.839 2.293-.8 3.212.098.939.918 1.068.863 1.187-.507.406-4.675 1.793-3.131 2.26 2.516.182 2.195.36 3.277.55 3.34.155.052.282.372.282.711 0 .539.621 2.724.775 2.724.336 0 1.482-.785 1.575-1.081.067-.211.63-.616 1.251-.901l1.129-.518.003-3.536c.002-1.945.094-3.68.206-3.856.412-.652 2.297-.66 3.403-.014l1.005.586.112 1.789.113 1.788.901.068c1.057.079 1.464.514 1.464 1.563v.757l1.182-.068 1.183-.068.061-1.126c.033-.62.158-1.329.277-1.577.12-.247.244-1.058.277-1.802l.06-1.351 1.314-.068c1.855-.096 1.86-.088 2.03 3.652.081 1.786.209 3.409.284 3.605.216.562 1.186.451 1.313-.151.293-1.388.414-2.763.449-5.123.041-2.797.467-4.232 1.176-3.96.187.072.484.131.66.131.176 0 .319.207.319.461s.353.825.783 1.268l.783.806-.049 2.544c-.056 2.941-.064 2.922 1.095 2.455 3.033-1.225 2.811-.732 2.642-5.845l-.141-4.28.615-.563a7.495 7.495 0 0 0 1.046-1.238c.281-.439.432-.545.433-.303 0 .205.355.797.789 1.316l.788.944v3.244c0 2.948.036 3.245.397 3.245.507 0 5.701-3.143 7.036-4.257.557-.466 1.317-1.035 1.689-1.266.964-.598 3.707-2.788 4.504-3.596a24.862 24.862 0 0 1 1.746-1.541c.588-.471 1.07-1.002 1.07-1.18 0-.279-7.416-.322-55.096-.322-52.439 0-55.08.019-54.786.394m117.302.675-.776.845.844-.776c.786-.723.949-.913.777-.913-.038 0-.418.38-.845.844m-123.862 1.07c.42.434.815.789.877.789.062 0-.231-.355-.652-.789-.42-.433-.814-.788-.876-.788-.062 0 .231.355.651.788m120.946 2.027c-.547.558-.944 1.014-.882 1.014.062 0 .56-.456 1.107-1.014.547-.557.944-1.013.882-1.013-.062 0-.56.456-1.107 1.013m-118.468.451c.42.433.814.788.876.788.062 0-.231-.355-.651-.788-.42-.434-.815-.789-.877-.789-.062 0 .231.355.652.789m2.027 1.759c0 .039.329.369.732.732l.732.662-.662-.732c-.616-.682-.802-.836-.802-.662m112.379 1.45-1.231 1.295 1.295-1.231c1.204-1.144 1.399-1.359 1.231-1.359-.035 0-.618.583-1.295 1.295m-109.021 1.484c.329.41 1.597 1.375 1.597 1.216 0-.05-.431-.433-.958-.851-.526-.419-.814-.583-.639-.365m65.842 18.097c.217.057.572.057.788 0 .217-.057.04-.103-.394-.103-.433 0-.611.046-.394.103m-18.13.683c.402.05 1.061.05 1.463 0 .403-.05.074-.09-.732-.09-.805 0-1.134.04-.731.09m10.589.001c.405.05 1.013.049 1.351-.003.339-.051.008-.092-.736-.091-.743.002-1.02.044-.615.094m-5.515.228c.592.046 1.504.046 2.027-.002.523-.047.038-.085-1.077-.084-1.115 0-1.542.039-.95.086"/><path fill="#f6ed87" d="M191.387 22.671c.787.321-.251.529-2.718.543-1.744.01-2.581.086-2.295.209.306.132-.104.199-1.279.21-1.22.011-1.829.115-2.067.353-.226.227-.79.338-1.706.338-1.065 0-1.367.075-1.367.338 0 .26-.288.338-1.239.338-.681 0-1.239.101-1.239.225s-.509.225-1.133.225c-.799 0-1.171.1-1.263.338-.08.209-.422.338-.893.338-.499 0-.765.108-.765.31 0 .184-.239.309-.588.309-.324 0-.679.14-.789.31-.167.26-.235.255-.421-.028-.148-.226-.223-.245-.225-.056-.002.161-.289.281-.672.281-.516 0-.638.081-.533.355.087.225.023.339-.176.311-.863-.12-1.551.034-1.551.348 0 .244-.25.338-.9.338-.496 0-.901.101-.901.225s-.301.225-.669.225c-.502 0-.636.084-.539.338.071.186.026.338-.101.338s-.281-.127-.344-.282c-.091-.225-.117-.225-.131 0-.01.155-.272.282-.581.282-.351 0-.563.127-.563.338 0 .225-.225.337-.676.337-.372 0-.676.102-.676.226 0 .124-.253.225-.563.225-.35 0-.563.127-.563.338 0 .21-.212.338-.563.338-.35 0-.563.127-.563.337 0 .198-.21.341-.507.345-.581.009-1.295.484-1.295.863 0 .141-.304.256-.675.256-.451 0-.676.113-.676.338 0 .186-.17.338-.378.338-.727 0-1.874.544-1.878.89-.003.307-.029.309-.221.011-.146-.225-.22-.244-.222-.056-.002.154-.206.281-.454.281-.25 0-.451.15-.451.338a.346.346 0 0 1-.351.338c-.193 0-.288.101-.212.225.078.126-.093.225-.387.225-.513 0-1.302.684-1.302 1.129 0 .122-.26.223-.579.223-.594 0-1.223.455-1.223.884 0 .133-.239.242-.531.242-.304 0-.713.241-.955.563-.232.309-.629.563-.882.563-.459 0-1.235.709-1.235 1.129 0 .122-.279.224-.62.226-.482.002-.544.051-.281.221.274.178.245.219-.156.222-.271.002-.566.121-.654.264-.1.161-.062.199.099.099.143-.088.26-.053.26.078s-.253.238-.563.238c-.318 0-.563.131-.563.3 0 .165-.253.436-.563.601-.31.166-.563.436-.563.601 0 .165-.152.3-.338.3a.339.339 0 0 0-.338.338.339.339 0 0 1-.337.338c-.186 0-.338.101-.338.225s-.156.225-.347.225c-.191 0-.744.406-1.23.901-.485.496-.988.901-1.117.901a.239.239 0 0 0-.234.243c0 .317-1.918 2.235-2.235 2.235a.244.244 0 0 0-.243.242c0 .134-.405.645-.901 1.135-.495.491-.9 1.04-.9 1.221 0 .181-.102.329-.226.329-.124 0-.225.153-.225.338a.339.339 0 0 1-.338.338.339.339 0 0 0-.338.338c0 .186-.134.338-.299.338-.165 0-.436.253-.601.563-.166.31-.437.563-.602.563-.168 0-.299.243-.299.556 0 .402-.094.52-.338.426-.235-.09-.338.016-.338.345 0 .261-.101.475-.225.475s-.225.152-.225.338c0 .185-.101.337-.223.337-.399 0-1.129.766-1.129 1.184 0 .225-.303.704-.673 1.066-.412.403-.62.792-.538 1.006.076.199.013.348-.148.348-.399 0-.878.699-.886 1.295-.004.279-.116.507-.25.507-.406 0-1.59 1.303-1.278 1.407.32.107-.304.845-.715.845-.133 0-.242.304-.242.676 0 .45-.112.675-.337.675-.213 0-.338.215-.338.577 0 .327-.098.516-.225.437-.133-.082-.226.156-.226.574 0 .541-.081.682-.338.583-.318-.122-.433.21-.398 1.152.006.154-.13.281-.302.281-.184 0-.313.233-.313.563 0 .31-.101.563-.225.563s-.226.152-.226.338a.339.339 0 0 1-.337.338c-.211 0-.338.213-.338.563s-.128.563-.338.563c-.21 0-.338.213-.338.563 0 .31-.101.563-.225.563s-.225.304-.225.676c0 .45-.113.675-.338.675-.209 0-.338.212-.338.552 0 .304-.177.666-.394.806-.376.241-.376.247 0 .13.217-.067.394-.024.394.096s-.152.218-.338.218c-.226 0-.338.227-.338.689 0 .402-.093.631-.225.55-.136-.084-.225.215-.225.751 0 .583-.117.935-.338 1.02-.212.081-.338.425-.338.925 0 .556-.101.795-.338.795-.304 0-.436.504-.398 1.52.006.155-.08.282-.19.282s-.201.279-.203.619c-.003.425-.064.525-.194.319-.253-.398-.479.166-.479 1.192 0 .409-.152.869-.337 1.023-.207.171-.338.665-.338 1.266 0 .543-.102.986-.225.986-.124 0-.226.558-.226 1.239 0 .951-.078 1.239-.338 1.239-.265 0-.337.31-.337 1.44 0 1.072-.087 1.473-.338 1.569-.259.099-.338.526-.338 1.826 0 .981-.095 1.696-.225 1.696-.136 0-.226.931-.226 2.341 0 1.879-.067 2.366-.339 2.471-.187.072-.327.209-.312.306.016.096.017 2.379.002 5.074l-.026 4.898H77.252v30.293c0 26.777.039 30.293.338 30.293.186 0 .338.152.338.338 0 .298 3.341.338 28.716.338 18.994 0 28.716.076 28.716.225 0 .124.152.225.338.225.409 0 .449.368.057.527-.155.062-.003.121.337.131.341.01.62.126.62.259 0 .312.573.885.885.885.132 0 .241.152.241.338 0 .185.152.337.338.337.185 0 .338.109.338.242 0 .312.573.885.884.885.133 0 .242.152.242.337 0 .186.152.338.337.338.186 0 .338.109.338.242 0 .311.573.884.885.884.133 0 .241.152.241.338 0 .186.152.338.338.338.186 0 .338.152.338.338 0 .186.076.326.169.311.509-.08.966.056.845.252-.077.124.069.225.324.225s.464.109.464.243c0 .424 1.298 1.559 1.784 1.559.258 0 .468.107.468.239 0 .131-.117.166-.26.077-.161-.099-.199-.061-.099.1.088.143.357.26.598.26.24 0 .437.152.437.338a.33.33 0 0 0 .319.337c.175 0 .354.106.397.236.044.129.305.252.582.273.277.021.504.168.504.328 0 .159.141.289.313.289.173 0 .372.153.444.338.071.186.335.338.587.338.252 0 .457.102.457.225 0 .124.152.226.338.226.186 0 .338.152.338.337 0 .299.424.455.974.359.102-.017.117.079.034.214-.086.139.053.3.321.37.26.068.473.213.473.322 0 .11.25.199.556.199.402 0 .52.094.426.338-.098.256.041.338.57.338.472 0 .7.11.7.338 0 .186.152.338.338.338.186 0 .338.101.338.225s.253.225.563.225c.35 0 .563.128.563.338 0 .223.223.338.652.338.371 0 .707.145.781.338.071.186.327.338.568.338.241 0 .474.105.517.235.043.129.305.252.582.273.277.021.504.168.504.328 0 .266.341.377 1.069.35.155-.006.282.131.282.303 0 .183.233.312.563.312.31 0 .563.102.563.226 0 .123.253.225.563.225.35 0 .563.127.563.338 0 .242.248.337.877.337.572 0 .922.118 1.006.338.072.186.378.338.681.338.304 0 .586.104.628.23.043.127.461.245.93.262.611.023.82.118.738.333-.081.209.085.301.541.301.38 0 .765.167.911.394.242.376.248.376.131 0-.067-.216-.024-.394.096-.394s.218.152.218.338c0 .244.25.338.901.338.495 0 .901.101.901.225s.253.225.563.225c.35 0 .563.128.563.338 0 .26.288.338 1.239.338.951 0 1.238.079 1.238.338 0 .243.249.338.888.338.488 0 .95.101 1.027.225.076.124.792.225 1.59.225 1.139 0 1.45.073 1.45.338 0 .266.313.338 1.464.338s1.464.072 1.464.338c0 .272.352.338 1.815.338 1.153 0 1.765.082 1.676.225-.09.146.936.225 2.915.225 2.528 0 3.054.057 3.054.329 0 .504 13.401.514 13.594.011.107-.279.656-.34 3.052-.34 1.705 0 2.98-.094 3.061-.225.076-.124.893-.225 1.815-.225 1.34 0 1.676-.068 1.676-.338 0-.274.363-.338 1.914-.338 1.552 0 1.915-.064 1.915-.338 0-.259.285-.338 1.22-.338.671 0 1.253-.096 1.295-.213.041-.117.556-.237 1.145-.267.705-.036 1.069-.155 1.069-.35 0-.195.308-.296.901-.296.651 0 .901-.094.901-.338 0-.243.248-.338.882-.338.486 0 .916-.096.958-.215.041-.118.455-.24.919-.271.513-.034.845-.171.845-.348 0-.174.272-.292.676-.292.487 0 .68-.11.691-.394.014-.337.044-.329.209.056.166.386.196.394.21.057.011-.285.204-.394.691-.394.372 0 .676-.102.676-.226 0-.123.358-.225.795-.225.5 0 .844-.126.925-.338.072-.185.373-.338.669-.338.296 0 .539-.13.539-.289 0-.16.226-.307.503-.328.277-.021.539-.144.582-.273.043-.13.428-.236.855-.236.483 0 .826-.128.906-.337.074-.193.41-.338.782-.338.358 0 .651-.109.651-.242 0-.261.554-.884.786-.884.078 0 .08.099.005.22-.075.122.165.049.532-.162.368-.211.62-.463.561-.559-.06-.096.151-.175.468-.175.379 0 .576-.124.576-.362 0-.226.125-.314.331-.235.183.07.48-.02.66-.201.181-.181.541-.328.802-.328.26 0 .532-.152.603-.338.071-.186.372-.338.669-.338.296 0 .54-.127.541-.281.001-.291.99-.845 1.507-.845.161 0 .293-.152.293-.338 0-.186.152-.338.337-.338a.339.339 0 0 0 .338-.338c0-.19.202-.337.461-.337.253 0 .733-.254 1.067-.563.334-.31.786-.564 1.004-.564.218 0 .396-.152.396-.337 0-.186.152-.338.338-.338.186 0 .338-.102.338-.225 0-.124.192-.226.426-.226.235 0 .485-.152.556-.337a.555.555 0 0 1 .475-.338c.189 0 .345-.109.345-.242 0-.356.591-.884.99-.884.232 0 .299-.126.202-.377-.105-.275-.051-.342.197-.246a.83.83 0 0 0 .658-.071c.225-.142.235-.201.036-.204-.155-.002-.282-.105-.282-.229 0-.123.211-.225.468-.225.486 0 1.785-1.134 1.785-1.559 0-.133.304-.243.675-.243.421 0 .655-.106.62-.281-.031-.155.07-.256.225-.225s.281-.096.281-.282a.34.34 0 0 1 .338-.338.339.339 0 0 0 .338-.338c0-.185.152-.337.338-.337.186 0 .313-.127.282-.282-.031-.155.07-.256.225-.225s.281-.096.281-.282a.34.34 0 0 1 .338-.338.339.339 0 0 0 .338-.337c0-.186.109-.338.241-.338.312 0 .885-.573.885-.885 0-.133.152-.241.338-.241.186 0 .338-.116.338-.257 0-.862-.24-.855 29.11-.862 22.243-.006 28.31-.067 28.266-.284-.031-.152.172-.311.45-.353l.507-.077v-60.555h-33.108v-3.941c0-3.354-.05-3.942-.338-3.942-.276 0-.338-.387-.338-2.139 0-1.277-.091-2.14-.225-2.14-.131 0-.225-.744-.225-1.783 0-1.878-.14-2.576-.474-2.369-.111.069-.202-.54-.202-1.353 0-1.061-.079-1.461-.281-1.421-.311.063-.331-.04-.369-1.927-.016-.809-.111-1.255-.251-1.169-.139.085-.225-.298-.225-1.001 0-.928-.073-1.142-.394-1.157-.236-.01-.281-.063-.113-.131.155-.063.282-.213.282-.334 0-.12-.102-.157-.225-.08-.139.086-.226-.298-.226-1 0-.863-.082-1.14-.337-1.14-.244 0-.338-.25-.338-.901 0-.495-.102-.901-.226-.901-.123 0-.225-.405-.225-.9 0-.651-.094-.901-.338-.901-.244 0-.337-.251-.337-.901 0-.651-.094-.901-.338-.901-.225 0-.338-.225-.338-.676 0-.371-.101-.675-.225-.675s-.226-.254-.226-.564c0-.35-.127-.563-.337-.563-.25 0-.338-.262-.338-1.006 0-.802-.069-.98-.338-.877-.257.099-.338-.042-.338-.583 0-.418-.093-.656-.225-.574-.134.083-.225-.183-.225-.655 0-.614-.077-.765-.338-.665-.247.094-.338-.028-.338-.458 0-.372-.124-.587-.338-.587-.244 0-.338-.25-.338-.901 0-.495-.101-.901-.225-.901s-.225-.206-.225-.457c0-.252-.152-.516-.338-.588-.186-.071-.338-.318-.338-.548 0-.281-.112-.377-.338-.29-.247.095-.337-.028-.337-.458 0-.323-.102-.587-.226-.587-.124 0-.225-.256-.225-.57 0-.313-.152-.628-.338-.7-.186-.071-.338-.372-.338-.668 0-.329-.131-.539-.337-.539-.186 0-.338-.132-.338-.293 0-.517-.554-1.505-.845-1.507-.155-.001-.281-.154-.281-.34a.339.339 0 0 0-.338-.338c-.21 0-.338-.212-.338-.563 0-.309-.101-.563-.225-.563s-.226-.253-.226-.563c0-.35-.127-.563-.337-.563a.339.339 0 0 1-.338-.338.339.339 0 0 0-.338-.338.339.339 0 0 1-.338-.337c0-.186-.101-.338-.225-.338s-.225-.206-.225-.458c0-.251-.152-.516-.338-.587-.186-.071-.338-.271-.338-.443 0-.173-.109-.314-.241-.314-.363 0-.932-.642-.783-.884.154-.249-.826-1.368-1.198-1.368-.14 0-.256-.152-.256-.338 0-.186-.101-.338-.225-.338s-.225-.152-.225-.338a.339.339 0 0 0-.338-.338c-.186 0-.338-.101-.338-.225s-.152-.225-.337-.225c-.191 0-.338-.202-.338-.464 0-.271-.1-.402-.241-.315-.132.082-.221.011-.198-.156.084-.611-.019-.867-.35-.867a.339.339 0 0 1-.337-.338.339.339 0 0 0-.338-.338c-.186 0-.338-.108-.338-.241 0-.312-.573-.885-.885-.885-.133 0-.241-.152-.241-.338a.339.339 0 0 0-.338-.337c-.186 0-.338-.109-.338-.242 0-.312-.573-.885-.885-.885-.132 0-.241-.152-.241-.337a.339.339 0 0 0-.338-.338c-.186 0-.338-.109-.338-.242 0-.311-.573-.884-.885-.884-.132 0-.241-.152-.241-.338a.339.339 0 0 0-.338-.338c-.185 0-.338-.109-.338-.241 0-.312-.573-.885-.884-.885-.133 0-.242-.152-.242-.338 0-.214-.215-.338-.587-.338-.429 0-.552-.091-.457-.338.088-.229-.012-.338-.314-.338-.244 0-.443-.101-.443-.225s-.152-.225-.338-.225c-.186 0-.338-.109-.338-.243 0-.424-1.299-1.559-1.785-1.559-.265 0-.467-.146-.467-.338a.339.339 0 0 0-.338-.337.339.339 0 0 1-.338-.338.339.339 0 0 0-.338-.338c-.186 0-.338-.101-.338-.225s-.253-.226-.563-.226c-.35 0-.563-.127-.563-.337 0-.186-.141-.338-.314-.338-.172 0-.372-.152-.443-.338-.071-.186-.341-.338-.6-.338-.259 0-.409-.101-.332-.225.077-.124-.07-.225-.325-.225s-.463-.111-.463-.246c0-.353-.944-1.089-1.408-1.098-.217-.004-.394-.109-.394-.233 0-.124-.254-.225-.563-.225-.351 0-.563-.128-.563-.338 0-.212-.214-.338-.577-.338-.351 0-.518-.094-.427-.24.081-.133-.064-.296-.325-.364-.26-.068-.473-.214-.473-.323 0-.109-.253-.199-.563-.199-.35 0-.563-.128-.563-.338 0-.225-.225-.338-.676-.338-.45 0-.676-.112-.676-.338 0-.21-.212-.337-.563-.337-.309 0-.563-.102-.563-.226 0-.123-.152-.225-.337-.225-.186 0-.34-.126-.342-.281-.002-.188-.076-.169-.222.056-.186.289-.218.281-.221-.056-.003-.29-.189-.394-.704-.394-.529 0-.668-.083-.57-.338.097-.253-.035-.338-.52-.338-.357 0-.688-.114-.734-.254-.047-.139-.359-.253-.695-.253-.367 0-.61-.123-.61-.31 0-.176-.231-.309-.539-.309-.296 0-.597-.152-.668-.338-.082-.212-.426-.338-.925-.338-.438 0-.796-.101-.796-.225s-.405-.225-.9-.225c-.651 0-.901-.094-.901-.338 0-.192-.202-.338-.467-.338-.256 0-.618-.152-.804-.338-.186-.186-.635-.338-.998-.338-.362 0-.659-.101-.659-.225s-.243-.225-.539-.225c-.297 0-.598-.152-.669-.338-.093-.244-.476-.338-1.375-.338-.877 0-1.229-.083-1.19-.281.039-.194-.351-.303-1.245-.35-.748-.039-1.245-.158-1.169-.281.078-.126-.426-.214-1.225-.214-1.115 0-1.335-.061-1.228-.338.105-.273-.091-.338-1.021-.338-.632 0-1.15-.09-1.15-.201 0-.11-.166-.265-.37-.343-.309-.118-.323-.085-.085.201.235.284.221.343-.081.343-.201 0-.365-.152-.365-.338 0-.272-.35-.337-1.802-.337-1.051 0-1.802-.094-1.802-.226 0-.135-.938-.225-2.364-.225-1.772 0-2.351-.07-2.309-.281.044-.221-1.95-.29-9.291-.322-5.14-.022-9.219.012-9.063.076m17.172 4.764c5.239.607 9.893 1.405 13.288 2.281 2.746.708 3.897 1.034 5.33 1.507.888.294 1.729.534 1.868.534s1.08.405 2.091.901c1.011.495 1.962.901 2.114.901.152 0 1.069.363 2.038.807l2.775 1.271c1.888.863 3.263 1.607 4.144 2.243.483.348.97.634 1.081.634.111 0 .757.354 1.434.788.678.433 1.273.788 1.322.788.222 0 6.162 4.175 7.447 5.236.124.102.54.41.924.684 2.22 1.585 10.161 9.408 11.709 11.535.746 1.025 2.383 3.105 3.1 3.94.743.864 4.199 6.133 4.202 6.405.001.132.355.685.786 1.228.69.867 4.392 8.007 4.392 8.47 0 .098.404 1.021.899 2.052.823 1.718 1.757 4.136 2.251 5.833l.561 1.914c.767 2.61 1.076 3.747 1.256 4.618.101.495.35 1.559.552 2.364.691 2.75 1.011 4.392 1.229 6.307l.45 3.941c.127 1.115.235 4.485.241 7.489l.01 5.462h16.335c10.83 0 16.482.078 16.771.233.54.289.702 50.986.165 51.523-.207.208-6.652.27-27.646.269l-27.376-.001-2.592 2.648c-2.67 2.726-7.245 6.91-8.011 7.325-.238.129-1.041.711-1.785 1.292-2.119 1.659-6.586 4.606-8.48 5.596-.949.495-2.155 1.212-2.681 1.593-.525.381-1.047.693-1.158.693-.111 0-.932.341-1.824.758-2.206 1.031-3.5 1.594-4.438 1.932-.977.351-1.309.492-3.2 1.352-.831.378-1.619.687-1.752.687s-.872.216-1.643.478c-5.638 1.925-13.84 3.359-21.783 3.81-3.58.204-13.041-.054-13.55-.368-.088-.055-1.104-.196-2.258-.314a52.32 52.32 0 0 1-3.787-.539l-3.04-.584c-.743-.142-1.656-.347-2.027-.455a88.228 88.228 0 0 0-2.14-.567c-2.734-.691-5.963-1.754-7.618-2.51-.907-.414-1.773-.752-1.925-.752a.87.87 0 0 1-.491-.188c-.117-.104-.72-.372-1.34-.596-1.596-.578-6.178-2.804-6.982-3.393-.371-.272-1.486-.923-2.477-1.447-1.909-1.009-4.133-2.44-5.068-3.26a10.763 10.763 0 0 0-1.238-.905c-.372-.227-1.421-.98-2.331-1.674-.91-.695-1.914-1.433-2.232-1.642a7.015 7.015 0 0 1-1.064-.901c-.268-.287-1.392-1.332-2.497-2.323-1.105-.991-2.516-2.353-3.136-3.027a79.272 79.272 0 0 0-1.878-1.97l-.751-.745-27.628-.057-27.628-.057-.057-25.774c-.045-20.471.001-25.812.225-25.954.156-.099 7.702-.181 16.769-.183l16.487-.003.091-5.462c.052-3.099.247-6.68.451-8.277.198-1.549.459-3.576.579-4.506.12-.93.319-2.146.442-2.703.123-.556.346-1.62.495-2.363.362-1.81.848-3.832 1.218-5.068.167-.557.473-1.621.682-2.365.372-1.331.651-2.094 1.049-2.874.112-.218.363-.877.559-1.464.318-.952.539-1.506 1.23-3.094.108-.248.393-.957.633-1.577.722-1.86 2.695-5.728 3.99-7.824.669-1.082 1.216-2.019 1.216-2.082 0-.202 1.891-3.127 2.769-4.283a943.59 943.59 0 0 0 2.211-2.928c2.83-3.762 6.419-7.826 8.701-9.854.713-.633 1.955-1.778 2.76-2.543.806-.766 2.579-2.211 3.942-3.212a255.796 255.796 0 0 0 3.606-2.692c.621-.48 2.04-1.417 3.153-2.082a1000.15 1000.15 0 0 0 4.188-2.519c1.189-.72 2.228-1.31 2.307-1.31.079 0 1.179-.506 2.443-1.126 1.265-.619 2.39-1.126 2.501-1.126.214 0 .986-.326 3.198-1.351.743-.344 1.757-.751 2.252-.904.496-.153 1.066-.36 1.268-.46.201-.1.735-.251 1.185-.335.45-.085.874-.244.942-.354.067-.11.368-.199.668-.199.3 0 .928-.139 1.395-.309.81-.294 2.687-.752 5.128-1.25a113.25 113.25 0 0 0 2.252-.49c1.194-.276 2.187-.408 7.176-.96 1.717-.189 3.183-.406 3.258-.481.216-.216 10.968.021 13.328.294M92.147 128.149c-1.356 1.425-1.396 1.746-1.114 8.975.186 4.79.184 7.273-.01 9.813-.143 1.871-.259 4.727-.259 6.348l.002 2.946.732.818c2.964 3.313 13.493 3.606 18.061.504 3.173-2.155 4.801-4.569 5.877-8.712 1.62-6.241-3.183-13.958-10.839-17.413a48.11 48.11 0 0 1-1.676-.783c-.19-.1-.671-.254-1.068-.341-.397-.087-.78-.252-.85-.366-.071-.115-.282-.208-.47-.208-.187 0-1.496-.558-2.908-1.239-3.323-1.604-4.224-1.66-5.478-.342m60.598.097c-1.213 1.316-1.207 1.262-1.126 10.493.039 4.397-.017 10.073-.123 12.612l-.194 4.617.687.937c.442.603.928.989 1.366 1.085.374.082 1.092.349 1.596.592 3.004 1.452 10.217 1.455 13.547.006 2.261-.984 6.277-4.945 6.277-6.192 0-.188.093-.4.207-.47.34-.211 1.122-3.056 1.279-4.656.698-7.11-5.193-14.12-14.543-17.303-.801-.273-2.502-.995-3.78-1.605-3.106-1.484-3.916-1.502-5.193-.116m-57.373-.561c.071.114.811.527 1.646.918.835.39 1.787.854 2.116 1.031.329.176.744.321.922.321.301 0 1.321.415 2.25.915.215.116.519.211.675.212.428.001 2.744 1.197 3.636 1.878.432.329.885.599 1.007.599.122 0 .255.076.296.17.102.232 1.903 1.631 2.099 1.631.179 0 2.143 1.983 2.143 2.164 0 .065.241.441.535.836.775 1.038 1.943 3.224 1.943 3.635 0 .195.091.529.203.745.74 1.423.757 5.378.029 6.817-.096.19-.246.67-.334 1.067-.087.397-.252.78-.366.851-.114.07-.208.279-.208.464 0 .733-2.941 4.593-3.501 4.593-.067 0-.659.405-1.315.9-.656.496-1.321.901-1.477.901-.156 0-.602.144-.993.319-2.02.907-9.095.908-11.104.002-.39-.177-.866-.321-1.056-.321-.191 0-.41-.101-.486-.225-.077-.124-.373-.225-.659-.225-1.575 0-2.464-1.725-2.283-4.43.073-1.094.189-6.975.257-13.07l.125-11.081.912-.912c.913-.913 2.612-1.314 2.988-.705m60.61.123c.24.182.614.334.831.338.217.004.394.1.394.214 0 .115.303.274.673.356.371.081.731.241.802.355.071.115.325.208.566.208.24 0 .437.09.437.2 0 .109.532.366 1.182.57 1.925.605 5.772 2.275 6.025 2.615.062.083.569.431 1.126.773.557.341 1.115.737 1.239.878.124.141.725.659 1.335 1.15 5.247 4.219 6.793 10.638 3.99 16.562-.987 2.087-1.865 3.172-3.641 4.505-.412.309-.861.673-.997.809-1.91 1.905-10.751 2.751-13.976 1.336a57.915 57.915 0 0 0-1.351-.569c-2.683-1.083-3.145-1.805-2.934-4.584.077-1.009.211-6.872.298-13.029l.159-11.195.89-.911c.979-1.003 2.102-1.224 2.952-.581m-14.928.339c-1.544.941-2.283 2.323-4.397 8.227-.214.6-.714 1.819-1.291 3.153-.377.872-1.357 3.615-1.357 3.8 0 .102-.138.505-.307.896a65.45 65.45 0 0 0-1.397 3.581c-.211.588-.456 1.07-.543 1.07-.178 0-.681-1.021-.681-1.384 0-.131-.14-.557-.311-.947-.554-1.263-.805-2.022-1.388-4.201a234.934 234.934 0 0 0-.927-3.378 43.715 43.715 0 0 1-.529-2.027 17.73 17.73 0 0 0-.397-1.464c-.274-.827-.577-1.964-1.1-4.127-.635-2.631-2.222-3.737-4.252-2.965-1.518.577-1.842 2.301-1.02 5.431l.584 2.224c.158.599.401 1.443 1.297 4.505.308 1.052.738 2.573.956 3.378.219.805.54 1.971.715 2.59.175.619.429 1.532.565 2.027.136.496.363 1.104.505 1.351.141.248.443 1.059.671 1.802.228.743.491 1.554.584 1.802.093.248.504 1.363.913 2.477 1.144 3.115 2.062 3.968 3.901 3.623.773-.145 2.161-1.102 2.161-1.49 0-.106.547-1.338 1.216-2.739.669-1.401 1.741-3.966 2.383-5.7a539.889 539.889 0 0 1 1.469-3.941c.167-.434.577-1.549.911-2.478.335-.929.731-1.892.881-2.139.379-.626 1.473-3.544 1.473-3.931 0-.174.659-1.668 1.464-3.318 1.51-3.096 1.737-4.084 1.123-4.895-.95-1.255-2.587-1.599-3.875-.813m96.571-.159c-1.319.667-1.348.863-1.6 10.888-.128 5.065-.324 10.274-.436 11.574-.804 9.35.701 10.421 11.861 8.436 1.014-.18 2.036-.327 2.271-.327.547 0 4.279-1.196 5.168-1.656 1.371-.709 1.839-2.281 1.103-3.704-.864-1.672-2.009-1.791-5.992-.622-2.254.662-5.04 1.195-7.057 1.35l-1.989.154.109-1.759c.32-5.184.85-21.622.72-22.316-.345-1.834-2.476-2.869-4.158-2.018m24.283.094c-1.27.788-1.323 1.083-1.319 7.426.002 3.201-.101 7.442-.229 9.424-.716 11.101-.694 11.956.35 13.324.969 1.27 3.528 1.711 7.022 1.21l6.367-.914a12.815 12.815 0 0 0 3.266-.901c2.084-.899 2.541-1.143 2.912-1.552.64-.707.596-2.226-.092-3.231-.872-1.272-1.932-1.373-5.072-.486-3.611 1.021-5.228 1.344-7.841 1.564l-1.759.149.1-2.667c.81-21.785.783-22.596-.767-23.397-.834-.432-2.199-.408-2.938.051m-117.623.644c.915.987.93 1.714.069 3.256-.262.468-1.423 2.869-1.868 3.863-.203.452-.369.978-.369 1.169 0 .191-.09.402-.199.47-.11.068-.252.403-.317.745-.169.897-.716 2.283-1.023 2.589a1.07 1.07 0 0 0-.263.655c0 .216-.101.455-.225.532-.124.076-.226.31-.227.52 0 .209-.152.671-.337 1.026-.185.354-.337.777-.337.938 0 .162-.142.581-.317.932-.42.846-.746 1.662-.883 2.214-.22.883-.986 2.875-1.536 3.995-.105.215-.193.519-.193.676-.001.156-.559 1.398-1.239 2.759-.681 1.361-1.241 2.577-1.245 2.703-.071 2.182-4.579 1.626-5.074-.626-.086-.39-.232-.864-.325-1.054-.528-1.077-.9-2.102-.9-2.479 0-.236-.089-.485-.199-.553-.11-.068-.269-.491-.353-.942-.157-.834-.215-.988-.873-2.301-.207-.413-.376-.99-.376-1.282 0-.292-.096-.59-.213-.663-.116-.072-.28-.586-.363-1.142-.084-.556-.242-1.066-.351-1.134-.11-.068-.2-.396-.201-.729-.001-.334-.153-.897-.338-1.251-.185-.355-.336-.899-.336-1.209 0-.556-.557-2.508-.933-3.267a2.334 2.334 0 0 1-.193-.867c0-.262-.143-.795-.318-1.185a8.354 8.354 0 0 1-.442-1.273 97.03 97.03 0 0 0-.5-2.027c-.974-3.814-.5-5.18 1.798-5.18 1.298 0 2.615.989 2.615 1.965 0 .29.152.89.338 1.335.186.445.338 1.145.338 1.556 0 .411.095.807.212.879.117.072.28.586.364 1.142.083.556.241 1.066.35 1.134.11.068.2.381.2.695 0 .315.143.892.319 1.282.175.39.371 1.014.434 1.385.064.372.282 1.284.484 2.028.203.743.469 1.756.592 2.252.123.495.319.997.436 1.115.117.117.215.421.219.675.004.254.156.659.338.899.182.241.334.697.338 1.014.007.517.665 1.59.976 1.59.177 0 1.043-2.018 1.051-2.45.004-.201.156-.563.338-.803.182-.24.331-.671.331-.957 0-.286.101-.52.225-.52s.226-.178.226-.394c.001-.217.153-.685.338-1.04.185-.354.337-.828.337-1.051 0-.224.142-.694.317-1.044.174-.351.437-.942.584-1.314.146-.371.409-.962.583-1.313.175-.351.321-.807.325-1.013.004-.207.156-.573.337-.813.182-.241.331-.622.331-.848 0-.226.089-.587.198-.802.469-.927.928-2.119.928-2.407 0-.37.715-1.78.957-1.888.093-.041.169-.198.169-.348 0-1.764 3.657-3.13 4.871-1.819m37.767-.342c-1.601.502-2.171 2.53-1.14 4.056.73 1.079 1.146 1.132 8.566 1.093 3.689-.02 6.765.022 6.837.094.071.071-.566.875-1.415 1.787-2.66 2.854-5.065 5.768-6.194 7.507-.327.503-1.138 1.568-1.801 2.364a44.6 44.6 0 0 0-2.307 3.092c-.605.903-1.529 2.119-2.052 2.702-2.723 3.033-3.291 6.492-1.24 7.541.734.376 1.362.392 9.122.234 4.583-.093 9.94-.172 11.904-.176l3.571-.007.652-.78c.843-1.007.908-2.403.145-3.086-1.115-.997-1.509-1.033-10.301-.941-9.87.103-9.188.512-6.14-3.686 6.136-8.45 10.474-13.45 12.629-14.554 4.279-2.192 5.706-5.171 3.193-6.664-.747-.445-1.14-.471-7.545-.506-3.716-.02-8.784-.095-11.261-.166-2.75-.078-4.784-.041-5.223.096m58.673.289c.717.763.755 1.636.483 11.192-.136 4.769-.266 9.989-.289 11.599l-.041 2.928 1.239-.018c1.872-.027 7.353-1.051 7.75-1.448.123-.123.537-.223.921-.223s.803-.104.93-.232c1.626-1.626 4.972.627 4.149 2.794-.351.922-1.762 1.942-2.687 1.942-.213 0-.488.101-.61.223-.274.274-1.907.639-4.106.919-.906.116-1.841.314-2.077.44-.237.127-2.279.251-4.546.278-4.586.053-5.372-.177-5.699-1.667-.078-.351-.234-.696-.349-.767-.276-.17-.256-3.355.028-4.493.124-.496.331-4.601.46-9.122.349-12.224.457-13.823.972-14.392.642-.707 2.79-.679 3.472.047m24.442.068c.976.977.97.301.167 21.034-.188 4.841-.189 4.837 1.436 4.64 2.856-.347 5.055-.713 5.209-.868.093-.093.43-.172.75-.177.32-.004.835-.152 1.145-.329.31-.177.803-.326 1.096-.33.293-.005 1.005-.176 1.581-.381 2.012-.714 3.854.29 3.854 2.101 0 .901-.618 2.101-1.083 2.101-.171 0-.58.143-.909.319-.986.527-2.486 1.032-3.066 1.032-.3 0-.608.101-.685.225-.076.124-.636.225-1.244.225s-1.55.152-2.094.336c-1.643.558-8.624.579-9.645.029-1.569-.844-2.017-5.414-1.087-11.091.119-.728.217-5.001.218-9.496.001-8.629-.02-8.426 1.013-9.668.459-.552 2.692-.353 3.344.298m-59.953.257c.155.155.441.281.637.281.541 0 1.131.826 1.131 1.584 0 1.432-2.2 3.65-4.684 4.721-.832.359-5.36 5.108-7.088 7.434-.875 1.177-1.65 2.19-1.723 2.252-.428.364-5.442 7.352-5.861 8.169-.507.989-.154 1.127 2.497.979 5.663-.315 14.422-.414 14.67-.165.139.138.478.252.755.252 1.277 0 1.801 1.986.815 3.087l-.62.691-12.204.082-12.204.081-.465-.497c-1.012-1.084.156-5.528 1.689-6.431.295-.173 3.252-4.105 3.252-4.324 0-.112.222-.389 1.365-1.699.821-.941 2.238-2.897 2.238-3.089 0-.099.229-.433.509-.742.28-.308.863-1.016 1.295-1.574.931-1.2 1.527-1.87 3.976-4.468 2.512-2.665 2.874-2.514-6.016-2.514h-7.389l-.466-.593c-.937-1.191-.563-3.317.659-3.746.784-.275 22.947-.057 23.232.229m6.836.011c-1.594.996-1.861 2.906-.585 4.182.692.692.754.708 3.316.818l2.61.113-.035 9.33c-.02 5.132-.079 9.399-.131 9.484-.053.085-.993.205-2.091.268-3.851.219-5.365 2.476-3.148 4.693l.707.708 2.606-.128c1.434-.07 5.116-.22 8.182-.335 6.263-.234 6.785-.386 7.368-2.152.77-2.333-.837-3.513-4.784-3.513-2.693 0-3.125-.05-3.25-.375-.273-.71.265-17.164.57-17.469.203-.203 1.156-.261 3.481-.212 3.168.066 3.208.061 3.81-.509 1.223-1.158 1.164-3.596-.105-4.395-1.325-.834-17.3-1.272-18.521-.508m15.089.175c3.316.169 3.942.578 3.942 2.573 0 2.419-1.451 2.879-6.681 2.119-1.619-.235-1.606-.304-1.788 9.271-.087 4.592-.09 8.621-.007 8.952l.151.604 3.093.003c3.963.005 5.109.781 4.637 3.14-.329 1.646-.884 1.796-7.542 2.046-3.267.122-6.792.279-7.835.35-2.115.143-2.654-.029-3.247-1.031-1.024-1.735-.202-3.229 1.923-3.491l2.544-.314 1.126-.14.142-9.122c.078-5.017.179-9.375.225-9.685l.083-.563-2.553-.063c-3.41-.086-4.302-.61-4.301-2.527.001-2.483 2.518-2.815 16.088-2.122m72.814.827c-.556.527-1.804 2.174-2.773 3.66-.969 1.487-2.05 3.074-2.402 3.527-.352.453-.769 1.062-.926 1.351-.158.29-.648 1.085-1.09 1.766a44.469 44.469 0 0 0-1.415 2.365c-1.119 2.057-2.03 3.247-2.794 3.653-.903.479-1.39 1.317-1.236 2.124.074.387-.156 1.159-.67 2.249-1.329 2.817-2.022 4.88-1.859 5.531.492 1.959 2.966 2.75 4.47 1.429.664-.583 3.31-5.406 3.31-6.034 0-1.059 2.399-1.538 8.53-1.706l1.436-.039.439 1.464c2.028 6.752 4.868 9.103 6.87 5.686.606-1.034.518-2.058-.313-3.659-.161-.309-.294-.72-.294-.912-.001-.192-.09-.445-.197-.563-.194-.213-.601-1.728-1.267-4.718a641.45 641.45 0 0 0-.557-2.478c-.114-.495-.374-1.712-.579-2.702-.583-2.824-.994-4.662-1.234-5.519-.415-1.485-.897-3.856-.897-4.414 0-2.668-2.646-3.866-4.552-2.061m3.293-.039c.32.381.583.882.583 1.113 0 .231.101.483.225.559.124.077.23.615.235 1.196.006.581.156 1.462.335 1.957.178.496.326 1.174.328 1.507.001.334.1.666.218.739.118.073.283.74.367 1.482.084.743.241 1.404.349 1.471.107.066.195.445.195.841 0 .396.113 1.074.25 1.507.138.433.338 1.243.445 1.8.415 2.167.808 3.956.939 4.279.075.186.182.693.237 1.127.098.771.379 1.652.981 3.074.166.39.301.852.301 1.025 0 .173.123.438.274.588.15.151.273.827.273 1.503 0 2.147-2.033 3.374-3.273 1.974-1.056-1.192-1.778-2.241-1.778-2.584 0-.19-.152-.471-.338-.625-.186-.155-.338-.51-.338-.791 0-.28-.151-.8-.336-1.154-.185-.355-.337-.824-.338-1.043-.001-.218-.119-.624-.262-.901a46.175 46.175 0 0 1-.424-.841c-.187-.384-3.289-.378-4.721.009-.434.118-1.611.214-2.616.215-1.885.001-3.015.465-3.015 1.238 0 .167-.144.59-.32.941-.176.35-.725 1.465-1.22 2.476-1.322 2.702-1.86 3.229-3.3 3.229-2.276 0-3.043-1.965-1.69-4.333.123-.215.224-.521.224-.68 0-.158.405-1.095.901-2.082.635-1.264.901-2.08.901-2.766 0-.894.062-.999.767-1.293.685-.287 2.354-2.412 2.913-3.711.157-.365.456-.855 1.162-1.909.553-.824.944-1.474 1.157-1.92.089-.186.22-.388.291-.45.071-.062.636-.873 1.255-1.802.619-.929 1.202-1.723 1.295-1.764a.305.305 0 0 0 .169-.252c0-.393 2.137-3.353 3.22-4.459 1.424-1.457 2.257-1.585 3.179-.49M96.171 134.46c-.139.26-.225 3.969-.225 9.74v9.319l.619.456c1.312.966 7.082 1.068 8.829.156.316-.165.676-.302.8-.306.486-.014 2.604-2.462 3.291-3.804.854-1.67 1.066-5.359.383-6.679l-.748-1.45c-.473-.918-2.676-3.113-3.616-3.604-.356-.186-.821-.508-1.033-.715-.413-.406-3.572-1.987-3.97-1.987-.131 0-.526-.143-.877-.317-2.287-1.137-3.167-1.343-3.453-.809m60.709-.274c-.423.423-.111 19.359.326 19.754 1.103.999 6.636 1.129 8.706.205.391-.174.813-.316.939-.316.207 0 .749-.525 2.381-2.309 1.79-1.956 2.202-6.5.822-9.065-.676-1.257-3.157-3.941-3.643-3.941-.118 0-.489-.255-.824-.567-.605-.562-4.01-2.361-4.47-2.361-.131 0-.685-.236-1.23-.524-1.077-.57-2.809-1.074-3.007-.876m-58.006 1.057a71.04 71.04 0 0 1 2.652 1.144c.654.302 1.238.55 1.297.55.386 0 4.008 2.707 4.879 3.647 3.273 3.533 2.914 9.024-.804 12.288-1.903 1.671-8.439 2.214-9.937.826l-.565-.523v-9.227c0-9.35.025-9.637.789-9.376.124.042.884.344 1.689.671m59.651-.423 1.272.557a54.5 54.5 0 0 0 1.586.631c2.994 1.147 6.696 3.813 7.855 5.659 2.789 4.44.875 10.801-3.697 12.287-1.761.572-6.556.592-7.602.031l-.732-.393v-9.416c0-5.179.068-9.484.15-9.566.205-.205.232-.2 1.168.21m141.025 4.031c0 .186-.095.338-.21.338-.116 0-.282.228-.369.507-.087.279-.22.557-.296.619-.195.159-.601.847-1.195 2.027a32.582 32.582 0 0 1-1.03 1.867c-.723 1.186-.562 1.286 2.056 1.286 2.853 0 3.176-.171 2.996-1.592-.5-3.956-.911-5.389-1.547-5.389-.223 0-.405.152-.405.337m.971 1.521c.781 3.657.841 4.077.621 4.296-.417.417-4.746.843-4.746.467 0-.346 3.435-6.39 3.634-6.393.078-.002.299.732.491 1.63"/><path fill="#040404" d="m196.396 27.261-4.054.422c-3.047.316-5.545.648-6.859.913-4.042.813-4.913 1.004-6.429 1.412a71.53 71.53 0 0 1-2.477.626c-1.498.325-5.525 1.767-7.493 2.682-1.086.505-2.075.918-2.198.918-.123 0-1.391.558-2.819 1.239s-2.641 1.239-2.695 1.239c-.054 0-1.165.658-2.467 1.464-1.303.805-2.419 1.464-2.48 1.464-.236 0-3.195 1.891-3.842 2.457-.376.328-1.39 1.077-2.253 1.664-5.917 4.027-14.952 13.087-18.463 18.514a25.851 25.851 0 0 1-1.548 2.108c-.451.54-1.192 1.654-1.648 2.477-.455.823-1.357 2.358-2.004 3.412-.963 1.568-3.056 5.715-3.922 7.769-1.576 3.738-3.497 8.977-3.923 10.698-.077.309-.292 1.12-.477 1.802-.934 3.425-1.92 8.994-2.351 13.288-.623 6.202-.709 7.785-.577 10.642.079 1.703.114 3.12.077 3.149-.036.029-7.617.105-16.845.169l-16.78.116-.058 25.563c-.054 23.834-.032 25.583.325 25.845.301.222 6.219.282 27.792.282h27.409l1.32 1.395c1.956 2.067 2.229 2.334 5.016 4.911 1.407 1.301 2.722 2.456 2.922 2.567.2.111.871.619 1.491 1.129.619.51 1.784 1.38 2.59 1.933.805.554 2.122 1.498 2.928 2.1.805.601 1.97 1.342 2.59 1.646 1.195.587 1.317.658 3.26 1.881a31.573 31.573 0 0 0 2.596 1.434c2.981 1.435 5.103 2.4 5.277 2.4.187 0 1.653.608 3.281 1.36 1.775.82 8.559 2.866 10.924 3.295.309.056 1.221.241 2.027.411 1.332.281 3.055.548 7.882 1.225 2.765.388 11.057.53 14.865.255 5.595-.404 7.165-.616 12.162-1.637 3.607-.738 4.119-.851 4.831-1.066.378-.114 1.296-.381 2.039-.593.743-.212 1.554-.464 1.802-.561a8.954 8.954 0 0 1 1.11-.321c.362-.079 1.294-.441 2.07-.804a40.415 40.415 0 0 1 2.719-1.136 39.604 39.604 0 0 0 2.434-.993c4.308-1.977 5.199-2.411 5.508-2.683.191-.168 1.159-.738 2.15-1.266 2.287-1.22 5.041-3.006 7.77-5.04 1.177-.877 2.436-1.781 2.798-2.009.967-.609 4.82-4.157 7.804-7.187l2.607-2.646h27.249c21.445 0 27.33-.06 27.631-.282.357-.262.379-2.011.325-25.845l-.058-25.563-16.638-.112-16.637-.113-.07-6.419c-.038-3.53-.176-6.875-.305-7.432a10.508 10.508 0 0 1-.24-1.915c-.004-1.081-.593-4.556-1.01-5.968a36.533 36.533 0 0 1-.579-2.365 69.625 69.625 0 0 0-.696-2.928 581.6 581.6 0 0 1-.675-2.59c-.143-.557-.342-1.216-.442-1.464-.1-.248-.551-1.556-1.003-2.907-.451-1.351-1.16-3.175-1.574-4.054a91.53 91.53 0 0 1-1.134-2.498c-.944-2.231-3.171-6.547-4.069-7.887-.543-.809-.987-1.531-.987-1.605 0-.074-.861-1.415-1.913-2.979-1.669-2.482-2.542-3.653-4.135-5.547a38.854 38.854 0 0 1-1.048-1.352c-3.749-5.047-13.923-13.86-20.494-17.753a183.358 183.358 0 0 1-3.759-2.282 27.194 27.194 0 0 0-2.816-1.505c-1.803-.813-3.377-1.525-4.843-2.191-.581-.264-1.155-.48-1.274-.48s-.708-.242-1.307-.538c-1.735-.856-2.712-1.264-3.039-1.27-.168-.003-.912-.215-1.656-.471-2.292-.789-7.39-2.064-9.797-2.45a213.19 213.19 0 0 1-2.477-.415c-1.244-.218-3.231-.478-7.208-.941-2.947-.343-8.727-.455-11.036-.213m14.077 6.273c1.115.137 2.534.348 3.153.469.619.121 2.19.422 3.491.67 1.301.248 2.973.617 3.716.821.744.203 1.706.451 2.14.55 1.086.249 2.629.757 4.075 1.344.67.271 1.623.649 2.119.84 1.6.616 2.469.978 2.868 1.197.215.118.494.215.62.215.42 0 4.816 2.227 7.322 3.711 1.363.806 2.889 1.678 3.392 1.936.503.259 1.607.995 2.452 1.635.846.64 2.195 1.636 2.998 2.213 4.118 2.96 11.944 10.561 13.761 13.365.321.495 1.053 1.425 1.627 2.066 1.295 1.446 6.15 9.222 7.362 11.794 2.406 5.1 2.843 6.065 3.362 7.424 1.721 4.509 3.129 9.722 4.015 14.865.203 1.176.505 2.899.672 3.828.808 4.507.996 14.676.28 15.13-.72.458-74.914.211-75.16-.25-.869-1.622.02-3.656 1.132-2.591l.674.645.726-.406c.746-.417 1.627-1.42 3.203-3.642 2.74-3.864 3.214-4.193 4.463-3.096 2.064 1.812 5.413 3.593 6.026 3.205.561-.355 1.021-.234 2.602.69 1.744 1.019 5.003 1.314 6.356.574.329-.179 1.561-.698 2.738-1.152 2.119-.818 7.16-3.322 8.303-4.125 2.107-1.479 4.166-2.243 6.336-2.351 2.691-.133 4.988-1.409 5.513-3.063.07-.22.366-.509.658-.642.292-.133.872-.539 1.29-.902 1.247-1.083 3.304-1.852 4.952-1.852.849 0 1.551-.362 1.551-.8 0-.61-1.367-1.26-2.365-1.124-2.914.398-3.421.403-3.563.034-.373-.973.784-1.714 2.674-1.714.699 0 1.591-.141 1.981-.314.391-.172.888-.372 1.104-.443 1.255-.413-1.575-2.565-2.905-2.209-1.231.329-1.811.334-2.007.017-.233-.378.374-1.33.847-1.33.594 0 .728-.543.298-1.199-.557-.851-1.319-.935-2.452-.271-.534.313-1.262.569-1.618.569-.481 0-.917.284-1.709 1.114-.584.613-1.551 1.347-2.149 1.633-.597.285-1.188.751-1.311 1.035-.124.284-.479.574-.789.645-.309.071-1.155.318-1.879.549-1.299.413-1.329.413-2.253-.035l-.935-.455-.507.585c-.279.321-.507.795-.507 1.053 0 1.629-1.596 3.786-2.802 3.786-.302 0-.612.101-.689.225-.162.262-1.311.304-1.556.056-.092-.093-1.097-.29-2.234-.439l-3.217-.423c-.823-.108-1.48-.043-2.301.23-.633.21-1.432.35-1.777.31l-.626-.072-.119-2.252c-.065-1.239-.237-2.455-.381-2.703-.308-.53-1.958-2.139-2.193-2.139-.279 0-2.219-1.424-3.234-2.374l-.972-.91-.169-2.357c-.194-2.73-.191-2.72-1.973-4.561-2.411-2.487-2.422-2.529-1.525-5.801.32-1.171.637-2.432.704-2.804.066-.371.2-.777.298-.901.097-.124.25-.63.34-1.126.374-2.067 1.163-2.858 3.48-3.49.592-.161 1.41-.64 1.966-1.152 1.172-1.078 2.671-.88 3.665.483.195.268 1.538.893 1.917.893.2 0 .866.165 1.482.366 1.337.438 3.17.324 3.787-.234.564-.51.73-1.677.287-2.014-.187-.141-1.45-1.397-2.807-2.791-1.358-1.394-2.601-2.534-2.762-2.534-.501 0-1.252-1.146-1.093-1.668.248-.813 1.242-2.836 1.401-2.851.084-.008.507-.05.941-.095.449-.046 1.014.065 1.314.257.474.305.568.3.956-.05.769-.697 2.624-.836 3.626-.273.957.538 1.513.229 1.529-.85.004-.255.261-.807.571-1.226.784-1.064.711-1.499-.435-2.564-2.558-2.38-3.387-2.842-5.09-2.842-1.268 0-2.394-1.052-2.082-1.946.348-.998.012-1.432-1.108-1.432-.68 0-1.281-.227-2.297-.866-3.113-1.96-6.426-2.259-10.16-.917-.743.267-2.266.803-3.385 1.191-3.331 1.154-4.998 2.285-6.648 4.512-1.472 1.988-2.209 2.535-4.719 3.505-1.253.484-2.091.849-3.702 1.613-1.487.706-2.461.573-3.282-.448-.384-.479-.941-1-1.238-1.159-.297-.159-.605-.583-.684-.945-.181-.825-.718-.764-1.218.138-.369.666-.54.794-1.649 1.232-.428.169-.667.461-.76.925-.196.977-1.066.94-1.663-.071-.365-.619-.551-.734-1.071-.657-.51.075-.688-.028-.948-.546-.631-1.257-.659-1.257-1.848.044-1.199 1.312-1.65 1.461-2.58.851-.634-.416-.608-.432-1.515.933-.367.553-1.494.369-5.47-.89-.391-.124-.503-.055-.563.35-.208 1.405-1.687 1.017-2.621-.687-.305-.558-.6-1.064-.656-1.126-.278-.31-.688.85-.809 2.285-.165 1.969-.319 2.16-1.444 1.791-.468-.154-1.358-.298-1.977-.32l-1.126-.04-.044 1.802c-.139 5.728-.587 6.587-1.999 3.829-2.313-4.519-2.419-4.584-2.588-1.577-.182 3.219-.22 3.266-2.697 3.266-2.373 0-2.476.152-1.343 1.992 1.002 1.63.761 2.737-.597 2.737-.532 0-2.331 1.562-2.331 2.023 0 .102.518.371 1.152.599 2.475.89 2.137 3.632-.547 4.446-1.464.444-1.462.48.06 1.82 2.344 2.062 2.598 2.609 1.81 3.902-.616 1.01-.941 1.077-1.948.402l-1.726-1.156c-.898-.6-1.674-.643-1.537-.085.087.356.62 2.307.829 3.035.184.639-.635 1.61-1.523 1.805-.397.087-.878.238-1.067.336-.19.098-1.004.343-1.81.545-3.011.757-3.152 1.539-.675 3.741 1.92 1.707 1.94 1.927.32 3.626-1.847 1.936-1.704 2.024 2.674 1.635 2.457-.219 3.033.35 2.168 2.14-.593 1.226-.375 1.49.934 1.137.866-.233 1.009-.216 1.286.153.864 1.151-.622 9.936-1.823 10.777-.709.497-1.405.41-1.822-.227-.667-1.018-1.485-.478-1.485.98 0 1.018-.201 1.352-1.059 1.759-1.144.543-1.129.804.139 2.327 1.227 1.475 1.417 2.216.795 3.104l-.351.501h-12.694c-6.982 0-12.854-.062-13.05-.137-.312-.119-.357-.823-.357-5.563 0-5.076.107-6.721.714-10.967.52-3.642.619-4.22.978-5.743.205-.867.453-1.982.551-2.478.098-.495.354-1.509.569-2.252.215-.743.523-1.819.684-2.39.16-.571.666-1.939 1.123-3.04.458-1.101.913-2.205 1.011-2.453a127.896 127.896 0 0 1 2.593-6.084c.169-.374.568-1.064.887-1.534.318-.47.979-1.596 1.468-2.503 1.284-2.381 3.566-5.985 4.286-6.771.341-.371 1.21-1.486 1.931-2.477 3.037-4.174 9.351-10.49 13.498-13.501.991-.72 2.106-1.591 2.478-1.937.764-.711 5.531-3.704 7.355-4.618.662-.332 1.355-.731 1.541-.887 1.199-1.004 10.815-5.097 14.302-6.087 3.567-1.014 3.704-1.047 7.32-1.775 3.201-.644 5.746-1.04 6.756-1.052a11.459 11.459 0 0 0 1.915-.207c1.227-.267 14.6-.113 17.117.197m14.958 14.019c.728.678.477.963-1.013 1.151-1.547.195-2.709-.101-2.913-.743-.483-1.522 2.408-1.822 3.926-.408M97.364 128.364c1.264.612 2.805 1.28 3.424 1.486 2.135.71 4.831 1.962 5.978 2.776.461.327 1.065.747 1.343.933 7.896 5.29 9.879 13.811 4.846 20.832-1.067 1.489-1.428 1.825-3.396 3.162-4.568 3.102-15.097 2.809-18.061-.504l-.732-.818-.002-3.059c-.002-1.683.116-4.541.261-6.352.201-2.515.201-4.807 0-9.706-.298-7.238-.234-7.72 1.196-9.11 1.162-1.128 2.22-1.054 5.143.36m60.574-.002c1.278.61 2.979 1.331 3.78 1.603 4.374 1.483 11.931 6.624 11.931 8.118 0 .129.233.558.519.952.48.662.865 1.41 1.471 2.857 1.015 2.423.566 9.278-.657 10.034-.114.07-.207.279-.207.463 0 1.27-3.975 5.197-6.273 6.197-3.48 1.514-10.419 1.496-13.613-.037-.47-.225-1.16-.477-1.534-.559-.437-.096-.925-.483-1.367-1.085l-.687-.937.194-4.617c.107-2.539.161-8.383.12-12.987-.082-9.129-.122-8.809 1.273-10.267 1.16-1.214 2.053-1.167 5.05.265m-13.959-.246c1.653 1.09 1.691 2.119.187 5.009-.608 1.168-1.432 3.086-1.83 4.262-.399 1.177-.949 2.596-1.221 3.154-.273.557-.774 1.773-1.115 2.702-.34.929-.756 2.044-.923 2.478-.167.433-.828 2.207-1.47 3.941a83.453 83.453 0 0 1-3.559 8.218c-1.118 2.219-4.289 2.329-5.273.183-.462-1.007-1.813-4.714-2.324-6.374-.228-.743-.531-1.554-.672-1.802-.142-.247-.369-.855-.505-1.351-.229-.834-.402-1.445-1.278-4.504-.392-1.371-1.207-4.257-1.463-5.181a777.652 777.652 0 0 0-1.348-4.783c-1.104-3.876-.299-5.936 2.309-5.907 1.52.017 2.387.974 2.951 3.258.566 2.294.822 3.253 1.17 4.392.17.557.714 2.534 1.208 4.392 1.045 3.926 1.568 5.633 1.968 6.419.158.309.288.685.289.834.002.391.496 1.418.682 1.418.087 0 .332-.482.543-1.07.462-1.284 1.009-2.705 1.28-3.322.108-.248.389-1.059.624-1.802.235-.743.552-1.655.705-2.027l.462-1.126c.102-.248.382-.907.624-1.464.241-.557.595-1.47.786-2.027 1.444-4.204 1.702-4.792 2.895-6.613 1.023-1.561 3.001-2.162 4.298-1.307m96.904.335c1.084 1.084 1.102 1.403.671 12.378-.215 5.478-.404 10.669-.421 11.536l-.029 1.576 1.801-.076c1.839-.077 4.874-.627 7.095-1.284 3.964-1.174 5.127-1.054 5.992.618.815 1.576.189 3.165-1.531 3.882l-1.42.592c-2.089.867-10.781 2.158-13.303 1.975-4.3-.311-4.724-1.464-4.04-10.999.182-2.54.341-6.797.352-9.46.045-10.709.24-11.43 3.105-11.472.82-.012 1.103.108 1.728.734m23.963-.42c1.532.792 1.59 2.571.767 23.5l-.1 2.544 1.759-.141c2.617-.21 4.149-.514 7.953-1.578 3.372-.943 4.757-.606 5.39 1.311.494 1.499-.166 2.72-1.855 3.43l-1.62.677c-1.639.682-9.522 1.911-12.252 1.911-5.189 0-5.495-1.004-4.527-14.865.125-1.796.227-5.936.226-9.2-.002-6.465.048-6.748 1.321-7.538.739-.459 2.104-.483 2.938-.051m-66.197.421c6.897.04 6.932.045 8.151 1.02 1.609 1.285-.337 4.393-3.832 6.12-1.421.703-5.746 5.211-8.416 8.774-5.224 6.971-6.489 8.768-6.489 9.219 0 .32.845.348 8.34.276 8.789-.086 9.187-.049 10.297.944.763.683.698 2.079-.144 3.086l-.652.78-3.121.016c-1.716.009-6.98.099-11.697.2-10.808.23-10.997.185-10.984-2.645.007-1.635.824-3.362 2.437-5.157.527-.586 1.453-1.805 2.057-2.708.604-.904 1.569-2.2 2.143-2.882a41.74 41.74 0 0 0 2.117-2.815c.591-.867 1.138-1.627 1.216-1.689.078-.062.493-.569.922-1.126.907-1.178 1.77-2.161 3.906-4.452.849-.911 1.489-1.712 1.42-1.78-.068-.068-3.144-.111-6.837-.096-8.433.036-9.078-.162-9.078-2.797 0-2.286.946-2.619 6.982-2.454 2.54.069 7.607.144 11.262.166m28.366.396c1.06.135 2.238.288 2.619.341 2.099.29 2.695 3.343.945 4.84-.461.394-.829.433-3.744.39-2.993-.044-3.251-.015-3.482.391-.277.484-.778 16.668-.536 17.299.122.317.58.368 3.248.368 3.947 0 5.554 1.18 4.784 3.513-.585 1.772-1.139 1.936-7.266 2.156-2.999.108-6.638.256-8.087.328-3.027.152-3.746-.123-4.241-1.623-.762-2.311.791-3.688 4.173-3.7 2.046-.007 1.887.79 1.928-9.689l.035-9.34-2.611-.113c-2.554-.11-2.626-.128-3.306-.808-1.243-1.245-.957-3.468.541-4.215.873-.435 11.866-.536 15-.138m76.298.713c.652.713 1.192 1.849 1.192 2.508 0 .56.481 2.93.897 4.417.24.857.651 2.695 1.234 5.519.205.99.465 2.207.579 2.702.113.496.364 1.611.557 2.478.666 2.99 1.073 4.505 1.267 4.718.107.118.196.371.197.563 0 .192.133.603.294.912.831 1.601.919 2.625.313 3.659-1.999 3.411-4.857 1.049-6.882-5.686l-.44-1.464-1.542.053c-6.233.21-8.411.651-8.411 1.702 0 .64-2.624 5.421-3.302 6.017-1.13.992-2.538.961-3.577-.078-1.348-1.349-1.223-2.248.958-6.875.514-1.09.744-1.862.67-2.249-.154-.807.333-1.645 1.236-2.124.767-.407 1.688-1.613 2.789-3.653a40.427 40.427 0 0 1 1.48-2.447c.479-.726.872-1.375.872-1.442 0-.067.239-.436.531-.819.293-.384 1.512-2.167 2.709-3.963 3.195-4.791 4.948-6.013 6.379-4.448m-206.635 5.048c-.219.088-.282 2.169-.282 9.339v9.227l.565.523c1.484 1.375 8.046.835 9.928-.817 3.727-3.273 4.09-8.76.813-12.297-.871-.94-4.493-3.647-4.879-3.647-.059 0-.643-.241-1.297-.536-1.321-.595-3.992-1.724-4.341-1.835-.124-.039-.352-.02-.507.043m60.679.001c-.082.082-.15 4.387-.15 9.566v9.416l.732.393c1.045.561 5.837.524 7.602-.058 5.346-1.765 6.766-9.749 2.445-13.749-1.79-1.657-6.245-4.367-7.178-4.367-.146 0-.535-.143-.863-.318-1.596-.848-2.362-1.109-2.588-.883m142.113 4.861c-.23.403-.723 1.289-1.097 1.97-.373.682-.971 1.758-1.328 2.393-.823 1.463-.828 1.437.309 1.435 3.047-.004 4.118-.486 3.815-1.716a50.253 50.253 0 0 1-.504-2.514c-.387-2.189-.646-2.53-1.195-1.568m-43.839 30.446c0 .178-.482.709-1.07 1.18a24.862 24.862 0 0 0-1.746 1.541c-.797.808-3.54 2.998-4.504 3.596-.372.231-1.132.8-1.689 1.266-1.335 1.114-6.529 4.257-7.036 4.257-.361 0-.397-.297-.397-3.245v-3.244l-.788-.944c-.434-.519-.789-1.111-.789-1.316-.001-.242-.152-.136-.433.303a7.495 7.495 0 0 1-1.046 1.238l-.615.563.141 4.28c.169 5.113.391 4.62-2.642 5.845-1.159.467-1.151.486-1.095-2.455l.049-2.544-.783-.806c-.43-.443-.783-1.014-.783-1.268s-.143-.461-.319-.461c-.176 0-.473-.059-.66-.131-.709-.272-1.135 1.163-1.176 3.96-.035 2.36-.156 3.735-.449 5.123-.127.602-1.097.713-1.313.151-.075-.196-.203-1.819-.284-3.605-.17-3.74-.175-3.748-2.03-3.652l-1.314.068-.06 1.351c-.033.744-.157 1.555-.277 1.802-.119.248-.244.957-.277 1.577l-.061 1.126-1.183.068-1.182.068v-.757c0-1.049-.407-1.484-1.464-1.563l-.901-.068-.113-1.788-.112-1.789-1.005-.586c-1.106-.646-2.991-.638-3.403.014-.112.176-.204 1.911-.206 3.856l-.003 3.536-1.129.518c-.621.285-1.184.69-1.251.901-.093.296-1.239 1.081-1.575 1.081-.154 0-.775-2.185-.775-2.724 0-.339-.127-.659-.282-.711-.19-.063-.368-1.145-.55-3.34-.467-5.647-1.854-7.191-2.26-2.516-.119 1.37-.248 1.425-1.187.507-.919-.898-2.214-.937-3.212-.098-.947.797-1.06.514-1.064-2.67l-.004-2.656-1.745.066-1.746.065-.066 1.396c-.054 1.116-.149 1.422-.476 1.526-.518.164-.686 1.443-.71 5.412-.01 1.61-.105 3.13-.212 3.378-.169.394-.195.401-.209.049-.009-.22-.168-.459-.354-.531-.27-.103-.338-.599-.338-2.485 0-2.551-.175-3.133-1.041-3.463-1.014-.385-1.406.05-1.482 1.646l-.067 1.406-1.576.112-1.577.113-.112 1.96c-.062 1.079-.22 2.067-.351 2.198-.293.292-1.213-.495-1.251-1.07-.014-.212-.09-3.329-.169-6.928-.133-6.052-.178-6.589-.594-7.171a16.264 16.264 0 0 1-.824-1.301c-.372-.668-.375-.669-.532-.148-.087.288-.441.827-.786 1.199-.764.82-.964 3.454-.633 8.333.259 3.819.236 3.899-1.112 3.985l-1.068.069-.061 1.689c-.08 2.2-.162 2.427-.701 1.939-.58-.526-.818-2.519-.796-6.68l.018-3.502-.737-.552c-.492-.369-.76-.776-.806-1.227-.062-.594-.165-.684-.859-.739-1.186-.095-1.576.745-1.577 3.403a78.84 78.84 0 0 1-.144 4.218l-.143 2.152-.626-.092c-.813-.119-.893-.476-.911-4.082-.018-3.502-.074-3.612-1.924-3.779-1.57-.143-1.648-.044-1.654 2.115-.001.643-.104 1.232-.228 1.308-.124.077-.225.678-.225 1.337 0 2.07-2.184 2.598-2.521.61-.215-1.27-.485-1.569-1.494-1.653l-.827-.069-.066-1.736c-.081-2.137-.683-2.769-2.637-2.767-1.827.001-1.915.088-1.915 1.913 0 1.157-.086 1.624-.315 1.712-.624.24-7.704-4.807-10.608-7.562-.867-.823-1.779-1.642-2.027-1.82-1.673-1.206-6.172-1.113 54.026-1.113 47.68 0 55.096.043 55.096.322"/><path fill="#fff" d="M190.766 22.86c0 .186.146.338.324.338.477 0 .631-.381.219-.539-.502-.193-.543-.178-.543.201m18.994 0c0 .186.186.338.413.338.506 0 .543-.352.056-.539-.475-.182-.469-.185-.469.201m4.654.612c0 .097.203.177.451.177s.45-.08.45-.177c0-.098-.202-.177-.45-.177s-.451.079-.451.177m3.604.552a.3.3 0 0 0 .601 0 .3.3 0 0 0-.601 0m3.066.652c-.082.214.027.324.319.324.513 0 .594-.344.125-.525a.346.346 0 0 0-.444.201m2.429.587c-.064.103.093.187.348.187s.463-.084.463-.187-.156-.188-.347-.188c-.192 0-.4.085-.464.188m-50.609 1.007c-.18.18.023.532.307.532.117 0 .212-.152.212-.338 0-.348-.265-.447-.519-.194m-3.175 1.172c-.078.126-.032.297.102.38.346.214.57-.079.281-.368-.162-.162-.288-.166-.383-.012m-1.711.824c0 .186.101.338.225.338s.225-.152.225-.338c0-.186-.101-.338-.225-.338s-.225.152-.225.338m64.64 0c0 .186.152.338.337.338a.339.339 0 0 0 .338-.338.339.339 0 0 0-.338-.338.339.339 0 0 0-.337.338m4.729 1.802c0 .206.109.339.243.294.133-.044.242-.177.242-.294 0-.118-.109-.251-.242-.295-.134-.044-.243.088-.243.295m2.596 1.004c-.191.309-.022.541.311.427.136-.047.154-.206.042-.386-.141-.226-.232-.237-.353-.041m-80.298.797c-.23.277-.215.338.085.338.201 0 .365-.152.365-.338 0-.185-.038-.337-.085-.337-.047 0-.211.152-.365.337m-1.701.995c.07.113 0 .257-.156.32-.171.069-.127.121.111.132.217.009.394-.135.394-.321 0-.185-.107-.337-.238-.337s-.181.092-.111.206m-1.452.807c0 .186.101.338.225.338s.225-.152.225-.338c0-.186-.101-.338-.225-.338s-.225.152-.225.338m91.216 1.802c0 .186.101.338.225.338s.225-.152.225-.338c0-.186-.101-.338-.225-.338s-.225.152-.225.338m-99.099 3.041c0 .123.152.225.337.225.186 0 .338-.102.338-.225 0-.124-.152-.226-.338-.226-.185 0-.337.102-.337.226m116.441 10.81c0 .124.152.226.338.226.186 0 .338.152.338.337 0 .186.101.338.225.338.304 0 .273-.256-.088-.732-.326-.429-.813-.53-.813-.169m3.604 4.167c0 .186.143.338.319.338.175 0 .364.127.419.281.056.155.173.216.261.134.171-.158-.533-1.091-.824-1.091-.096 0-.175.152-.175.338m10.811 15.548c0 .364.351.447.548.129.069-.111-.027-.26-.212-.331-.204-.078-.336.001-.336.202m-158.441.547c-.191.309-.022.541.311.426.136-.047.154-.206.042-.385-.14-.227-.232-.237-.353-.041m160.242 3.049c0 .186.178.33.394.32.238-.011.282-.063.112-.132-.156-.062-.226-.206-.156-.32.07-.113.02-.206-.111-.206s-.239.152-.239.338m2.478 5.387c0 .196.16.356.356.356.398 0 .329-.484-.089-.624-.147-.049-.267.072-.267.268M116.366 79.88c-.273.273-.155.513.188.382.186-.072.338-.221.338-.331 0-.236-.31-.266-.526-.051m168.544.619c0 .196.16.357.357.357.196 0 .316-.12.267-.268-.139-.417-.624-.486-.624-.089m3.704 13.214c-.083.135-.039.358.099.496s.259.205.268.149c.01-.056.051-.279.093-.495.083-.436-.222-.535-.46-.15M92.384 128.39l-.912.912-.125 11.081c-.068 6.095-.184 11.976-.257 13.07-.181 2.705.708 4.43 2.283 4.43.286 0 .582.101.659.225.076.124.295.225.486.225.19 0 .666.144 1.056.321 2.009.906 9.084.905 11.104-.002.391-.175.837-.319.993-.319.156 0 .821-.405 1.477-.901.656-.495 1.248-.9 1.315-.9.56 0 3.501-3.86 3.501-4.593 0-.185.094-.394.208-.464.114-.071.279-.454.366-.851.088-.397.238-.877.334-1.067.728-1.439.711-5.394-.029-6.817-.112-.216-.203-.55-.203-.745 0-.411-1.168-2.597-1.943-3.635-.294-.395-.535-.771-.535-.836 0-.181-1.964-2.164-2.143-2.164-.196 0-1.997-1.399-2.099-1.631-.041-.094-.174-.17-.296-.17s-.575-.27-1.007-.599c-.892-.681-3.208-1.877-3.636-1.878-.156-.001-.46-.096-.675-.212-.929-.5-1.949-.915-2.25-.915-.178 0-.593-.145-.922-.321a59.382 59.382 0 0 0-2.116-1.031c-.835-.391-1.575-.804-1.646-.918-.376-.609-2.075-.208-2.988.705m60.646-.001-.89.911-.159 11.195c-.087 6.157-.221 12.02-.298 13.029-.211 2.779.251 3.501 2.934 4.584.372.15.98.406 1.351.569 3.225 1.415 12.066.569 13.976-1.336.136-.136.585-.5.997-.809 3.212-2.41 4.96-6.061 4.96-10.361 0-4.339-1.731-7.829-5.309-10.706-.61-.491-1.211-1.009-1.335-1.15-.124-.141-.682-.537-1.239-.878-.557-.342-1.064-.69-1.126-.773-.253-.34-4.1-2.01-6.025-2.615-.65-.204-1.182-.461-1.182-.57 0-.11-.197-.2-.437-.2-.241 0-.495-.093-.566-.208-.071-.114-.431-.274-.802-.355-.37-.082-.673-.241-.673-.356 0-.114-.177-.21-.394-.214-.217-.004-.591-.156-.831-.338-.85-.643-1.973-.422-2.952.581m-12.66.823c-.526.582-.956 1.182-.956 1.333 0 .15-.076.307-.169.348-.242.108-.957 1.518-.957 1.888 0 .288-.459 1.48-.928 2.407a2.117 2.117 0 0 0-.198.802c0 .226-.149.607-.331.848-.181.24-.333.606-.337.813-.004.206-.15.662-.325 1.013-.174.351-.437.942-.583 1.313-.147.372-.41.963-.584 1.314-.175.35-.317.82-.317 1.044 0 .223-.152.697-.337 1.051-.185.355-.337.823-.338 1.04 0 .216-.102.394-.226.394-.124 0-.225.234-.225.52 0 .286-.149.717-.331.957-.182.24-.334.602-.338.803-.008.432-.874 2.45-1.051 2.45-.311 0-.969-1.073-.976-1.59-.004-.317-.156-.773-.338-1.014-.182-.24-.334-.645-.338-.899-.004-.254-.102-.558-.219-.675-.117-.118-.313-.62-.436-1.115-.123-.496-.389-1.509-.592-2.252-.202-.744-.42-1.656-.484-2.028a6.953 6.953 0 0 0-.434-1.385c-.176-.39-.319-.967-.319-1.282 0-.314-.09-.627-.2-.695-.109-.068-.267-.578-.35-1.134-.084-.556-.247-1.07-.364-1.142-.117-.072-.212-.468-.212-.879s-.152-1.111-.338-1.556c-.186-.445-.338-1.045-.338-1.335 0-.976-1.317-1.965-2.615-1.965-2.298 0-2.772 1.366-1.798 5.18.206.805.431 1.717.5 2.027.069.309.268.882.442 1.273.175.39.318.923.318 1.185s.087.652.193.867c.376.759.933 2.711.933 3.267 0 .31.151.854.336 1.209.185.354.337.917.338 1.251.001.333.091.661.201.729.109.068.267.578.351 1.134.083.556.247 1.07.363 1.142.117.073.213.371.213.663 0 .292.169.869.376 1.282.658 1.313.716 1.467.873 2.301.084.451.243.874.353.942.11.068.199.317.199.553 0 .377.372 1.402.9 2.479.093.19.239.664.325 1.054.495 2.252 5.003 2.808 5.074.626.004-.126.564-1.342 1.245-2.703.68-1.361 1.238-2.603 1.239-2.759 0-.157.088-.461.193-.676.55-1.12 1.316-3.112 1.536-3.995.137-.552.463-1.368.883-2.214.175-.351.317-.77.317-.932 0-.161.152-.584.337-.938.185-.355.337-.817.337-1.026.001-.21.103-.444.227-.52.124-.077.225-.316.225-.532 0-.215.119-.51.263-.655.307-.306.854-1.692 1.023-2.589.065-.342.207-.677.317-.745.109-.068.199-.279.199-.47 0-.191.166-.717.369-1.169.445-.994 1.606-3.395 1.868-3.863 1.241-2.221.479-3.829-1.814-3.829-1.162 0-1.257.046-2.17 1.059m96.883-.586c-.515.569-.623 2.168-.972 14.392-.129 4.521-.336 8.626-.46 9.122-.284 1.138-.304 4.323-.028 4.493.115.071.271.416.349.767.327 1.49 1.113 1.72 5.699 1.667 2.267-.027 4.309-.151 4.546-.278.236-.126 1.171-.324 2.077-.44 2.199-.28 3.832-.645 4.106-.919.122-.122.397-.223.61-.223.925 0 2.336-1.02 2.687-1.942.823-2.167-2.523-4.42-4.149-2.794-.127.128-.546.232-.93.232s-.798.1-.921.223c-.397.397-5.878 1.421-7.75 1.448l-1.239.018.041-2.928c.023-1.61.153-6.83.289-11.599.272-9.556.234-10.429-.483-11.192-.682-.726-2.83-.754-3.472-.047m24.57-.183c-1.033 1.242-1.012 1.039-1.013 9.668-.001 4.495-.099 8.768-.218 9.496-.93 5.677-.482 10.247 1.087 11.091 1.021.55 8.002.529 9.645-.029.544-.184 1.486-.336 2.094-.336.608 0 1.168-.101 1.244-.225.077-.124.385-.225.685-.225.58 0 2.08-.505 3.066-1.032.329-.176.738-.319.909-.319.465 0 1.083-1.2 1.083-2.101 0-1.811-1.842-2.815-3.854-2.101-.576.205-1.288.376-1.581.381-.293.004-.786.153-1.096.33-.31.177-.825.325-1.145.329-.32.005-.657.084-.75.177-.154.155-2.353.521-5.209.868-1.625.197-1.624.201-1.436-4.64.803-20.733.809-20.057-.167-21.034-.652-.651-2.885-.85-3.344-.298m-79.841.326c-1.222.429-1.596 2.555-.659 3.746l.466.593h7.389c8.89 0 8.528-.151 6.016 2.514-2.449 2.598-3.045 3.268-3.976 4.468a33.032 33.032 0 0 1-1.295 1.574c-.28.309-.509.643-.509.742 0 .192-1.417 2.148-2.238 3.089-1.143 1.31-1.365 1.587-1.365 1.699 0 .219-2.957 4.151-3.252 4.324-1.533.903-2.701 5.347-1.689 6.431l.465.497 12.204-.081 12.204-.082.62-.691c.986-1.101.462-3.087-.815-3.087-.277 0-.616-.114-.755-.252-.248-.249-9.007-.15-14.67.165-2.651.148-3.004.01-2.497-.979.419-.817 5.433-7.805 5.861-8.169.073-.062.848-1.075 1.723-2.252 1.728-2.326 6.256-7.075 7.088-7.434 2.484-1.071 4.684-3.289 4.684-4.721 0-.758-.59-1.584-1.131-1.584-.196 0-.482-.126-.637-.281-.285-.286-22.448-.504-23.232-.229m30.631.347c-1.118.366-1.562.989-1.562 2.19-.001 1.917.891 2.441 4.301 2.527l2.553.063-.083.563c-.046.31-.147 4.668-.225 9.685l-.142 9.122-1.126.14-2.544.314c-2.125.262-2.947 1.756-1.923 3.491.593 1.002 1.132 1.174 3.247 1.031 1.043-.071 4.568-.228 7.835-.35 6.658-.25 7.213-.4 7.542-2.046.472-2.359-.674-3.135-4.637-3.14l-3.093-.003-.151-.604c-.083-.331-.08-4.36.007-8.952.182-9.575.169-9.506 1.788-9.271 5.23.76 6.681.3 6.681-2.119 0-1.995-.626-2.404-3.942-2.573-5.636-.288-13.74-.326-14.526-.068m87.454 1.346c-1.083 1.106-3.22 4.066-3.22 4.459 0 .097-.076.21-.169.252-.093.041-.676.835-1.295 1.764-.619.929-1.184 1.74-1.255 1.802-.071.062-.202.264-.291.45-.213.446-.604 1.096-1.157 1.92-.706 1.054-1.005 1.544-1.162 1.909-.559 1.299-2.228 3.424-2.913 3.711-.705.294-.767.399-.767 1.293 0 .686-.266 1.502-.901 2.766-.496.987-.901 1.924-.901 2.082 0 .159-.101.465-.224.68-1.353 2.368-.586 4.333 1.69 4.333 1.44 0 1.978-.527 3.3-3.229a406.09 406.09 0 0 1 1.22-2.476c.176-.351.32-.774.32-.941 0-.773 1.13-1.237 3.015-1.238 1.005-.001 2.182-.097 2.616-.215 1.432-.387 4.534-.393 4.721-.009.09.186.281.564.424.841.143.277.261.683.262.901.001.219.153.688.338 1.043.185.354.336.874.336 1.154 0 .281.152.636.338.791.186.154.338.435.338.625 0 .343.722 1.392 1.778 2.584 1.24 1.4 3.273.173 3.273-1.974 0-.676-.123-1.352-.273-1.503-.151-.15-.274-.415-.274-.588s-.135-.635-.301-1.025c-.602-1.422-.883-2.303-.981-3.074-.055-.434-.162-.941-.237-1.127-.131-.323-.524-2.112-.939-4.279a19.118 19.118 0 0 0-.445-1.8c-.137-.433-.25-1.111-.25-1.507 0-.396-.088-.775-.195-.841-.108-.067-.265-.728-.349-1.471-.084-.742-.249-1.409-.367-1.482-.118-.073-.217-.405-.218-.739-.002-.333-.15-1.011-.328-1.507-.179-.495-.329-1.376-.335-1.957-.005-.581-.111-1.119-.235-1.196-.124-.076-.225-.328-.225-.559 0-1.941-2.129-2.293-3.762-.623m-201.644 4.24c.31.137.85.392 1.201.567.351.174.746.317.877.317.398 0 3.557 1.581 3.97 1.987.212.207.677.529 1.033.715.94.491 3.143 2.686 3.616 3.604l.748 1.45c.683 1.32.471 5.009-.383 6.679-.687 1.342-2.805 3.79-3.291 3.804-.124.004-.484.141-.8.306-1.747.912-7.517.81-8.829-.156l-.619-.456V144.2c0-11.09-.116-10.647 2.477-9.498m61.464.36c.545.288 1.099.524 1.23.524.46 0 3.865 1.799 4.47 2.361.335.312.706.567.824.567.486 0 2.967 2.684 3.643 3.941 1.38 2.565.968 7.109-.822 9.065-1.632 1.784-2.174 2.309-2.381 2.309-.126 0-.548.142-.939.316-2.07.924-7.603.794-8.706-.205-.437-.395-.749-19.331-.326-19.754.198-.198 1.93.306 3.007.876m140.773 4.281c.28.776.545 2.207.842 4.56.18 1.421-.143 1.592-2.996 1.592-2.618 0-2.779-.1-2.056-1.286.285-.469.749-1.309 1.03-1.867.594-1.18 1-1.868 1.195-2.027.076-.062.209-.34.296-.619.087-.279.253-.507.369-.507.115 0 .21-.152.21-.338 0-.701.808-.343 1.11.492M77.304 174.141c.139.418.624.487.624.089a.358.358 0 0 0-.357-.356c-.196 0-.316.12-.267.267m245.791-.057c-.237.383.326.5.684.142.32-.319.31-.352-.101-.352-.249 0-.512.094-.583.21m-188.185.61c0 .174.721.739.957.749.093.004.169-.094.169-.218s-.152-.225-.338-.225c-.186 0-.338-.101-.338-.225a.225.225 0 0 0-.225-.225c-.124 0-.225.064-.225.144m2.712 2.575c.368.689 1.132 1.397 1.304 1.21.083-.089.024-.208-.131-.263-.155-.055-.281-.244-.281-.419 0-.176-.153-.32-.338-.32a.339.339 0 0 1-.338-.337c0-.186-.105-.338-.233-.338-.156 0-.15.156.017.467m1.567 1.525c0 .218.748.936.975.936.083 0 .151-.102.151-.225 0-.124-.152-.226-.338-.226a.339.339 0 0 1-.337-.338c0-.185-.102-.337-.226-.337-.123 0-.225.085-.225.19m120.496 1.977c0 .299.061.314.338.085.185-.154.337-.319.337-.366 0-.046-.152-.085-.337-.085-.186 0-.338.165-.338.366m-15.541 10.783c0 .207.109.339.242.295.133-.045.242-.177.242-.295s-.109-.25-.242-.295c-.133-.044-.242.089-.242.295m-75.553 5.277c-.154.249.201.518.409.31.214-.214.174-.519-.068-.519-.116 0-.27.094-.341.209m58.661 1.958c0 .299.061.315.338.085.186-.154.338-.319.338-.366 0-.046-.152-.085-.338-.085-.186 0-.338.165-.338.366m-51.576.549c0 .131.092.181.206.111.113-.07.257 0 .32.155.069.171.121.127.132-.111.009-.217-.135-.394-.32-.394-.186 0-.338.107-.338.239m4.729.992c0 .057.203.213.451.346.359.192.45.171.45-.105 0-.196-.195-.346-.45-.346-.248 0-.451.047-.451.105m36.487.909c0 .186.089.338.198.338.108 0 .323-.152.478-.338.234-.283.201-.338-.198-.338-.275 0-.478.144-.478.338m-9.581 1.028c-.082.132-.092.297-.023.366.185.185.82-.104.82-.374 0-.305-.607-.299-.797.008"/></g></svg>